<svg width="24" height="24" viewBox="0 0 24 24" fill="none" xmlns="http://www.w3.org/2000/svg">
<circle cx="12" cy="12" r="12" fill="url(#paint0_linear_6_3667)"/>
<path fill-rule="evenodd" clip-rule="evenodd" d="M10.3943 14.1379C12.8537 14.1379 14.9557 14.5106 14.9557 15.9993C14.9557 17.4879 12.8677 17.8713 10.3943 17.8713C7.93434 17.8713 5.83301 17.5019 5.83301 16.0126C5.83301 14.5233 7.92034 14.1379 10.3943 14.1379Z" stroke="white" stroke-width="1.5" stroke-linecap="round" stroke-linejoin="round"/>
<path fill-rule="evenodd" clip-rule="evenodd" d="M10.3947 12.0132C8.78004 12.0132 7.4707 10.7045 7.4707 9.08984C7.4707 7.47517 8.78004 6.1665 10.3947 6.1665C12.0087 6.1665 13.318 7.47517 13.318 9.08984C13.324 10.6985 12.024 12.0072 10.4154 12.0132H10.3947Z" stroke="white" stroke-width="1.5" stroke-linecap="round" stroke-linejoin="round"/>
<path d="M14.9883 11.2543C16.0556 11.1043 16.8776 10.1883 16.8796 9.0796C16.8796 7.98694 16.0829 7.08027 15.0383 6.90894" stroke="white" stroke-width="1.5" stroke-linecap="round" stroke-linejoin="round"/>
<path d="M16.3965 13.8215C17.4305 13.9755 18.1525 14.3382 18.1525 15.0849C18.1525 15.5989 17.8125 15.9322 17.2631 16.1409" stroke="white" stroke-width="1.5" stroke-linecap="round" stroke-linejoin="round"/>
<defs>
<linearGradient id="paint0_linear_6_3667" x1="2.71698" y1="4.5283" x2="21.7358" y2="19.6981" gradientUnits="userSpaceOnUse">
<stop stop-color="#0F123F"/>
<stop offset="1" stop-color="#3A408F"/>
</linearGradient>
</defs>
</svg>
