<?xml version="1.0" encoding="utf-8"?>
<!-- Generator: Adobe Illustrator 19.0.0, SVG Export Plug-In . SVG Version: 6.00 Build 0)  -->
<svg version="1.1" id="Layer_1" xmlns="http://www.w3.org/2000/svg" xmlns:xlink="http://www.w3.org/1999/xlink" x="0px" y="0px"
	 viewBox="206 -206 612 612" style="enable-background:new 206 -206 612 612;" xml:space="preserve">
<style type="text/css">
	.st0{fill:#F3F7FB;}
	.st1{fill:#F0F5FA;}
	.st2{clip-path:url(#XMLID_96_);}
	.st3{opacity:0.1;fill:#6C63FF;enable-background:new    ;}
	.st4{fill:#6C63FF;}
	.st5{fill:#444053;}
	.st6{fill:#3F3D56;}
	.st7{fill:#FFFFFF;}
	.st8{opacity:0.8;fill:#FA5959;enable-background:new    ;}
	.st9{opacity:0.8;fill:#FED253;enable-background:new    ;}
	.st10{opacity:0.8;fill:#8CCF4D;enable-background:new    ;}
	.st11{opacity:5.000000e-002;enable-background:new    ;}
	.st12{fill:url(#XMLID_97_);}
	.st13{fill:#FBBEBE;}
	.st14{opacity:0.1;enable-background:new    ;}
	.st15{fill:#33313F;}
	.st16{opacity:0.1;}
</style>
<circle class="st0" cx="512" cy="100" r="306"/>
<circle class="st1" cx="511.5" cy="98.5" r="246.5"/>
<g id="XMLID_2_">
	<defs>
		<rect id="XMLID_95_" x="221" y="-100" width="579.4" height="400"/>
	</defs>
	<clipPath id="XMLID_96_">
		<use xlink:href="#XMLID_95_"  style="overflow:visible;"/>
	</clipPath>
	<g id="XMLID_3_" class="st2">
		<path id="XMLID_94_" class="st3" d="M548.7-45.5c-37.1,0-72.9-10.5-107.1-22.2c-34.2-11.7-68.1-24.8-104.6-30.3
			c-23.4-3.6-50.1-3.2-68.4,9.7c-17.6,12.5-22.7,33.1-25.2,52.1c-1.9,14.3-2.7,29.4,4.2,42.5c4.8,9.1,13.1,16.6,18.9,25.3
			c20.3,30.2,8.1,68.7-11.6,99.6c-9.2,14.5-20.1,28.4-27.1,43.7c-7,15.3-9.9,32.7-2.7,47.8c7.1,15,23,25.9,40.1,33.3
			c34.8,15.1,75.3,18.4,114.7,19.6c87.2,2.8,174.6-2.9,261.8-8.5c32.3-2.1,64.7-4.2,96.2-10.2c17.5-3.4,35.6-8.3,48-19.2
			c15.8-13.9,19-36.5,7.5-52.7c-19.3-27.3-70.1-32.4-83.9-61.9c-7.6-16.2-1-34.9,8.6-50.5C739,38.8,774.8,8.7,775.4-28.9
			c0.4-25.8-18.2-51-45.9-62.2c-29.1-11.7-68.7-8.7-89.1,13.2C619.4-55.3,581.5-45.6,548.7-45.5z"/>
		<path id="XMLID_93_" class="st4" d="M714.1,220.6c0,0-6.1-4-12.2-1.2c0,0,1.9,3.6,9.5,3.3L714.1,220.6z"/>
		<path id="XMLID_92_" class="st4" d="M714.9,220.9c0,0,1.9,7.1-2.8,11.9c0,0-2.8-2.9,0-10.1L714.9,220.9z"/>
		<path id="XMLID_91_" class="st4" d="M722.5,214.1c0,0-0.5-6-14-4c0,0-0.1,3.9,4.7,5.7C717.9,217.6,720.1,216,722.5,214.1z"/>
		<path id="XMLID_90_" class="st4" d="M723.3,214c0,0,5.7,1.8,0.6,14.6c0,0-3.8-0.8-4.5-5.9C718.8,217.6,720.8,215.9,723.3,214z"/>
		<path id="XMLID_89_" class="st4" d="M731,205.5c0,0,0.8-9.9-13.1-8.9c0,0-1,8.9,10.7,11.3L731,205.5z"/>
		<path id="XMLID_88_" class="st4" d="M740.2,194.3c0,0-1.9-11.2-15.8-7.9c0,0,0,9.7,13.5,10.6L740.2,194.3z"/>
		<path id="XMLID_87_" class="st4" d="M746.9,182.8c0,0-3.2-10.9-16.9-7.7c0,0,3.3,9.8,16,9.7L746.9,182.8z"/>
		<path id="XMLID_86_" class="st4" d="M753.3,171.5c0,0-3.1-11.3-16.4-8c0,0,4.4,10.8,15.5,9.9L753.3,171.5z"/>
		<path id="XMLID_85_" class="st4" d="M757.4,160.7c0,0-2.4-13.9-14.8-10.8c0,0,3.6,12.6,13.9,12.8L757.4,160.7z"/>
		<path id="XMLID_84_" class="st4" d="M761.2,147.8c0,0-2.9-14-15.4-9.9c0,0,4.9,13.2,14.5,11.8L761.2,147.8z"/>
		<path id="XMLID_83_" class="st4" d="M763.6,135.7c0,0-4.6-14-14.2-13.6c0,0,4.7,14.8,13.4,16.4L763.6,135.7z"/>
		<path id="XMLID_82_" class="st4" d="M765.1,124c0,0-5-16.8-12.8-15.5c0,0,3.4,12.9,12.6,18.2L765.1,124z"/>
		<path id="XMLID_81_" class="st4" d="M766,109.9c0,0-4.7-14-12.4-14.6c0,0,3.2,13.8,12.3,18.2L766,109.9z"/>
		<path id="XMLID_80_" class="st4" d="M766.9,96.8c0,0-5.8-14-10.9-14.4c0,0,2.5,13.8,10.4,16.7L766.9,96.8z"/>
		<path id="XMLID_79_" class="st4" d="M767.6,84.7c0,0-3.6-15.2-8.7-16.5c0,0,0.7,12.5,8.2,17.7L767.6,84.7z"/>
		<path id="XMLID_78_" class="st4" d="M769.5,68.7c0,0-3.8-12.2-7.9-14c0,0,0.8,14.3,7,17L769.5,68.7z"/>
		<path id="XMLID_77_" class="st4" d="M771.1,58.3l0.8-21.4c0,0-7.8,16.2-1.3,25.2L771.1,58.3z"/>
		<path id="XMLID_76_" class="st4" d="M777.1,36.9c0,0,5.6-15.7,7-16.5c0,0-11,10.2-9.9,23.2L777.1,36.9z"/>
		<path id="XMLID_75_" class="st4" d="M731.4,205.4c0,0,9.8-1.3,9.6,12.6c0,0-8.9,1.5-11.8-10.1L731.4,205.4z"/>
		<path id="XMLID_74_" class="st4" d="M740.7,193.9c0,0,11.4,0,10.4,14.2c0,0-9.6,1.7-12.7-11.5L740.7,193.9z"/>
		<path id="XMLID_73_" class="st4" d="M747,183.7c0,0,10.3-4.8,16.9,7.7c0,0-9.5,4-17.9-5.6L747,183.7z"/>
		<path id="XMLID_72_" class="st4" d="M753.5,171.6c0,0,10.6-5.2,16.8,7.1c0,0-11,3.8-17.7-5.1L753.5,171.6z"/>
		<path id="XMLID_71_" class="st4" d="M757.2,161c0,0,10.2-9.7,18.3,0.1c0,0-10.4,8-18.8,2.1L757.2,161z"/>
		<path id="XMLID_70_" class="st4" d="M760.7,147.5c0,0,10.2-9.9,18.3,0.5c0,0-11.5,8.2-18.7,1.6L760.7,147.5z"/>
		<path id="XMLID_69_" class="st4" d="M762.6,135.3c0,0,7.9-12.4,17.2-9.6c0,0-8.2,13.2-17.1,12.6L762.6,135.3z"/>
		<path id="XMLID_68_" class="st4" d="M764.9,123.9c0,0,8-15.6,15.5-12.9c0,0-5.7,12-15.7,15.6L764.9,123.9z"/>
		<path id="XMLID_67_" class="st4" d="M765.4,109.1c0,0,8.2-12.3,15.8-10.8c0,0-6.7,12.5-16.6,14.4L765.4,109.1z"/>
		<path id="XMLID_66_" class="st4" d="M766.1,96.6c0,0,6.3-13.8,11.5-13.9c0,0-3,13.7-11.1,16.3L766.1,96.6z"/>
		<path id="XMLID_65_" class="st4" d="M767.3,84.4c0,0,7-14,12.3-14c0,0-3.6,12-12.1,15.2L767.3,84.4z"/>
		<path id="XMLID_64_" class="st4" d="M768.4,69.6c0,0,5.3-11.6,9.6-12.9c0,0-2.6,14.1-9,16L768.4,69.6z"/>
		<path id="XMLID_63_" class="st4" d="M771.7,57.8l11.8-17.9c0,0-3,17.7-13.5,21.4L771.7,57.8z"/>
		<path id="XMLID_62_" class="st4" d="M779.8,38.4c0,0,13.7-9.4,14.2-11c0,0-7,13.2-19.9,15.6L779.8,38.4z"/>
		<path id="XMLID_61_" class="st4" d="M780.6,34.1c0,0,15.7-15.1,19.7-15.1c0,0-13,0.6-20.1,14.3L780.6,34.1z"/>
		<path id="XMLID_60_" class="st5" d="M768.5,71.8l0.6,0.1c3-23.1,7.3-36.8,12.1-38.4l-0.2-0.5C775.9,34.7,771.5,48.1,768.5,71.8z"
			/>
		<path id="XMLID_59_" class="st5" d="M764.2,127.1l0.9,0.1c0.2-2.2,0.3-4.4,0.4-6.6c0.8-19.1,2.1-36.7,3.8-49.8l-0.5-0.6
			c-1.7,13.2-3.3,31.3-4.1,50.4C764.5,122.7,764.4,124.9,764.2,127.1z"/>
		<path id="XMLID_58_" class="st5" d="M698,231.7c0.1-0.1,15.4-6.9,31.2-23.1c9.3-9.5,16.9-20.4,22.8-32.3
			c7.3-14.9,11.8-33.1,13.2-50.9l-0.9,0.4c-3.4,39.8-21.5,67.1-35.9,81.9c-15.6,16.1-30.7,22.8-30.8,22.9L698,231.7z"/>
		<path id="XMLID_57_" class="st6" d="M737.4-57.7H260c-1.1,0-2.2,0.4-3,1.2c-0.8,0.8-1.2,1.9-1.2,3V-41h485.9v-12.4
			c0-1.1-0.4-2.2-1.2-3C739.6-57.2,738.5-57.7,737.4-57.7z"/>
		<path id="XMLID_56_" class="st7" d="M255.8-41v278.8c0,2.3,0.9,4.5,2.5,6.1c1.6,1.6,3.8,2.5,6.1,2.5h468.8c2.3,0,4.5-0.9,6.1-2.5
			c1.6-1.6,2.5-3.8,2.5-6.1V-41H255.8z"/>
		<path id="XMLID_55_" class="st8" d="M263.5-47.5c1.1,0,2-0.9,2-2c0-1.1-0.9-2-2-2c-1.1,0-2,0.9-2,2
			C261.5-48.4,262.4-47.5,263.5-47.5z"/>
		<path id="XMLID_54_" class="st9" d="M268.9-47.5c1.1,0,2-0.9,2-2c0-1.1-0.9-2-2-2c-1.1,0-2,0.9-2,2
			C266.9-48.4,267.8-47.5,268.9-47.5z"/>
		<path id="XMLID_53_" class="st10" d="M274.4-47.5c1.1,0,2-0.9,2-2c0-1.1-0.9-2-2-2s-2,0.9-2,2C272.4-48.4,273.3-47.5,274.4-47.5z"
			/>
		<path id="XMLID_52_" class="st11" d="M691.4,5.5H300.9v171.7h390.5V5.5z"/>
		<path id="XMLID_51_" class="st6" d="M688.5,6.8H303.9v167.9h384.6V6.8z"/>
		<path id="XMLID_48_" class="st4" d="M408.7,50c-7.6,0-15,2.2-21.3,6.4c-6.3,4.2-11.2,10.2-14.1,17.2c-2.9,7-3.7,14.7-2.2,22.1
			c1.5,7.4,5.1,14.2,10.5,19.6c5.4,5.4,12.2,9,19.6,10.5c7.4,1.5,15.1,0.7,22.1-2.2c7-2.9,13-7.8,17.2-14.1
			c4.2-6.3,6.4-13.7,6.4-21.3c0-5-1-10-2.9-14.6c-1.9-4.6-4.7-8.9-8.3-12.4c-3.6-3.6-7.8-6.4-12.4-8.3C418.7,51,413.8,50,408.7,50z
			 M415.6,89.2v18.1h-13.5V89.2c-1.9-1.4-3.3-3.4-3.9-5.6c-0.7-2.2-0.7-4.6,0.1-6.9c0.7-2.2,2.2-4.2,4.1-5.5
			c1.9-1.4,4.2-2.1,6.5-2.1c2.3,0,4.6,0.7,6.5,2.1c1.9,1.4,3.3,3.3,4.1,5.5c0.7,2.2,0.8,4.6,0.1,6.9
			C418.9,85.8,417.5,87.8,415.6,89.2z"/>
		<path id="XMLID_45_" class="st11" d="M408.7,50c-7.6,0-15,2.2-21.3,6.4c-6.3,4.2-11.2,10.2-14.1,17.2c-2.9,7-3.7,14.7-2.2,22.1
			c1.5,7.4,5.1,14.2,10.5,19.6c5.4,5.4,12.2,9,19.6,10.5c7.4,1.5,15.1,0.7,22.1-2.2c7-2.9,13-7.8,17.2-14.1
			c4.2-6.3,6.4-13.7,6.4-21.3c0-5-1-10-2.9-14.6c-1.9-4.6-4.7-8.9-8.3-12.4c-3.6-3.6-7.8-6.4-12.4-8.3C418.7,51,413.8,50,408.7,50z
			 M415.6,89.2v18.1h-13.5V89.2c-1.9-1.4-3.3-3.4-3.9-5.6c-0.7-2.2-0.7-4.6,0.1-6.9c0.7-2.2,2.2-4.2,4.1-5.5
			c1.9-1.4,4.2-2.1,6.5-2.1c2.3,0,4.6,0.7,6.5,2.1c1.9,1.4,3.3,3.3,4.1,5.5c0.7,2.2,0.8,4.6,0.1,6.9
			C418.9,85.8,417.5,87.8,415.6,89.2z"/>
		<path id="XMLID_42_" class="st4" d="M408.7,39.1c-9.7,0-19.2,2.9-27.3,8.3c-8.1,5.4-14.4,13.1-18.1,22.1c-3.7,9-4.7,18.9-2.8,28.4
			c1.9,9.5,6.6,18.3,13.5,25.2c6.9,6.9,15.6,11.6,25.2,13.5c9.5,1.9,19.4,0.9,28.4-2.8c9-3.7,16.7-10,22.1-18.1
			c5.4-8.1,8.3-17.6,8.3-27.3c0-13-5.2-25.6-14.4-34.8C434.3,44.3,421.8,39.1,408.7,39.1z M417.6,89.4v23.3h-17.4V89.4
			c-2.4-1.8-4.2-4.4-5.1-7.2c-0.9-2.9-0.9-6,0.1-8.8c1-2.9,2.8-5.3,5.2-7.1c2.5-1.8,5.4-2.7,8.4-2.7c3,0,6,0.9,8.4,2.7
			c2.5,1.8,4.3,4.3,5.2,7.1c1,2.9,1,6,0.1,8.8C421.7,85.1,420,87.6,417.6,89.4z"/>
		<path id="XMLID_41_" class="st7" d="M637.3,81.8h-159v16.9h159V81.8z"/>
		<path id="XMLID_40_" class="st4" d="M637.3,112.6H603v16.9h34.3V112.6z"/>
		<path id="XMLID_39_" class="st4" d="M493.9,90h-2.9l2.6-2.6c0,0,0.1-0.1,0.1-0.2c0-0.1,0-0.1-0.1-0.2c0,0-0.1,0-0.1-0.1
			c0,0-0.1,0-0.1,0c0,0-0.1,0-0.1,0c0,0-0.1,0-0.1,0.1l-2.6,2.6v-2.9c0-0.1,0-0.1-0.1-0.2c0,0-0.1-0.1-0.2-0.1c-0.1,0-0.1,0-0.2,0.1
			c0,0-0.1,0.1-0.1,0.2v2.9l-2.6-2.6c0,0,0,0-0.1-0.1c0,0-0.1,0-0.1,0s-0.1,0-0.1,0c0,0-0.1,0-0.1,0.1c0,0-0.1,0.1-0.1,0.2
			c0,0.1,0,0.1,0.1,0.2l2.6,2.6H487c-0.1,0-0.1,0-0.2,0.1c0,0-0.1,0.1-0.1,0.2c0,0.1,0,0.1,0.1,0.2c0,0,0.1,0.1,0.2,0.1h2.9
			l-2.6,2.6c0,0-0.1,0.1-0.1,0.2c0,0.1,0,0.1,0.1,0.2c0,0,0.1,0.1,0.2,0.1c0.1,0,0.1,0,0.2-0.1l2.6-2.6v2.9c0,0.1,0,0.1,0.1,0.2
			c0,0,0.1,0.1,0.2,0.1c0.1,0,0.1,0,0.2-0.1c0,0,0.1-0.1,0.1-0.2v-2.9l2.6,2.6c0,0,0.1,0.1,0.2,0.1c0.1,0,0.1,0,0.2-0.1
			c0,0,0.1-0.1,0.1-0.2c0-0.1,0-0.1-0.1-0.2l-2.6-2.6h2.9c0.1,0,0.1,0,0.2-0.1c0,0,0.1-0.1,0.1-0.2c0-0.1,0-0.1-0.1-0.2
			C494.1,90,494,90,493.9,90z"/>
		<path id="XMLID_38_" class="st4" d="M504.4,90h-2.9l2.6-2.6c0,0,0.1-0.1,0.1-0.2c0-0.1,0-0.1-0.1-0.2c0,0-0.1,0-0.1-0.1
			c0,0-0.1,0-0.1,0c0,0-0.1,0-0.1,0c0,0-0.1,0-0.1,0.1l-2.6,2.6v-2.9c0-0.1,0-0.1-0.1-0.2c0,0-0.1-0.1-0.2-0.1c-0.1,0-0.1,0-0.2,0.1
			c0,0-0.1,0.1-0.1,0.2v2.9l-2.6-2.6c0,0-0.1,0-0.1-0.1c0,0-0.1,0-0.1,0c0,0-0.1,0-0.1,0c0,0-0.1,0-0.1,0.1c0,0-0.1,0.1-0.1,0.2
			c0,0.1,0,0.1,0.1,0.2l2.6,2.6h-2.9c-0.1,0-0.1,0-0.2,0.1c0,0-0.1,0.1-0.1,0.2c0,0.1,0,0.1,0.1,0.2c0,0,0.1,0.1,0.2,0.1h2.9
			l-2.6,2.6c0,0-0.1,0.1-0.1,0.2c0,0.1,0,0.1,0.1,0.2c0,0,0.1,0.1,0.2,0.1c0.1,0,0.1,0,0.2-0.1l2.6-2.6v2.9c0,0.1,0,0.1,0.1,0.2
			c0,0,0.1,0.1,0.2,0.1c0.1,0,0.1,0,0.2-0.1c0,0,0.1-0.1,0.1-0.2v-2.9l2.6,2.6c0,0,0.1,0.1,0.2,0.1c0.1,0,0.1,0,0.2-0.1
			c0,0,0.1-0.1,0.1-0.2c0-0.1,0-0.1-0.1-0.2l-2.6-2.6h2.9c0.1,0,0.1,0,0.2-0.1c0,0,0.1-0.1,0.1-0.2c0-0.1,0-0.1-0.1-0.2
			C504.5,90,504.4,90,504.4,90z"/>
		<path id="XMLID_37_" class="st4" d="M514.8,90h-2.9l2.6-2.6c0,0,0.1-0.1,0.1-0.2c0-0.1,0-0.1-0.1-0.2c0,0-0.1,0-0.1-0.1
			c0,0-0.1,0-0.1,0c0,0-0.1,0-0.1,0c0,0-0.1,0-0.1,0.1l-2.6,2.6v-2.9c0-0.1,0-0.1-0.1-0.2c0,0-0.1-0.1-0.2-0.1c-0.1,0-0.1,0-0.2,0.1
			c0,0-0.1,0.1-0.1,0.2v2.9l-2.6-2.6c0,0-0.1,0-0.1-0.1c0,0-0.1,0-0.1,0c0,0-0.1,0-0.1,0c0,0-0.1,0-0.1,0.1c0,0-0.1,0.1-0.1,0.2
			c0,0.1,0,0.1,0.1,0.2l2.6,2.6h-2.9c-0.1,0-0.1,0-0.2,0.1c0,0-0.1,0.1-0.1,0.2c0,0.1,0,0.1,0.1,0.2c0,0,0.1,0.1,0.2,0.1h2.9
			l-2.6,2.6c0,0-0.1,0.1-0.1,0.2c0,0.1,0,0.1,0.1,0.2c0,0,0.1,0.1,0.2,0.1c0.1,0,0.1,0,0.2-0.1l2.6-2.6v2.9c0,0.1,0,0.1,0.1,0.2
			c0,0,0.1,0.1,0.2,0.1c0.1,0,0.1,0,0.2-0.1c0,0,0.1-0.1,0.1-0.2v-2.9l2.6,2.6c0,0,0.1,0.1,0.2,0.1c0.1,0,0.1,0,0.2-0.1
			c0,0,0.1-0.1,0.1-0.2c0-0.1,0-0.1-0.1-0.2l-2.6-2.6h2.9c0.1,0,0.1,0,0.2-0.1c0,0,0.1-0.1,0.1-0.2c0-0.1,0-0.1-0.1-0.2
			C514.9,90,514.9,90,514.8,90z"/>
		<path id="XMLID_36_" class="st4" d="M525.2,90h-2.9l2.6-2.6c0,0,0.1-0.1,0.1-0.2c0-0.1,0-0.1-0.1-0.2c0,0-0.1,0-0.1-0.1
			c0,0-0.1,0-0.1,0c0,0-0.1,0-0.1,0c0,0-0.1,0-0.1,0.1l-2.6,2.6v-2.9c0-0.1,0-0.1-0.1-0.2c0,0-0.1-0.1-0.2-0.1c-0.1,0-0.1,0-0.2,0.1
			c0,0-0.1,0.1-0.1,0.2v2.9l-2.6-2.6c0,0-0.1,0-0.1-0.1c0,0-0.1,0-0.1,0c0,0-0.1,0-0.1,0c0,0-0.1,0-0.1,0.1c0,0-0.1,0.1-0.1,0.2
			c0,0.1,0,0.1,0.1,0.2l2.6,2.6h-2.9c-0.1,0-0.1,0-0.2,0.1c0,0-0.1,0.1-0.1,0.2c0,0.1,0,0.1,0.1,0.2c0,0,0.1,0.1,0.2,0.1h2.9
			l-2.6,2.6c0,0-0.1,0.1-0.1,0.2c0,0.1,0,0.1,0.1,0.2c0,0,0.1,0.1,0.2,0.1c0.1,0,0.1,0,0.2-0.1l2.6-2.6v2.9c0,0.1,0,0.1,0.1,0.2
			c0,0,0.1,0.1,0.2,0.1s0.1,0,0.2-0.1c0,0,0.1-0.1,0.1-0.2v-2.9l2.6,2.6c0,0,0.1,0.1,0.2,0.1c0.1,0,0.1,0,0.2-0.1
			c0,0,0.1-0.1,0.1-0.2c0-0.1,0-0.1-0.1-0.2l-2.6-2.6h2.9c0.1,0,0.1,0,0.2-0.1c0,0,0.1-0.1,0.1-0.2c0-0.1,0-0.1-0.1-0.2
			C525.4,90,525.3,90,525.2,90z"/>
		<path id="XMLID_35_" class="st4" d="M535.7,90h-2.9l2.6-2.6c0,0,0.1-0.1,0.1-0.2c0-0.1,0-0.1-0.1-0.2c0,0-0.1,0-0.1-0.1
			c0,0-0.1,0-0.1,0c0,0-0.1,0-0.1,0c0,0-0.1,0-0.1,0.1l-2.6,2.6v-2.9c0-0.1,0-0.1-0.1-0.2c0,0-0.1-0.1-0.2-0.1c-0.1,0-0.1,0-0.2,0.1
			c0,0-0.1,0.1-0.1,0.2v2.9l-2.6-2.6c0,0-0.1,0-0.1-0.1c0,0-0.1,0-0.1,0s-0.1,0-0.1,0c0,0-0.1,0-0.1,0.1c0,0-0.1,0.1-0.1,0.2
			c0,0.1,0,0.1,0.1,0.2l2.6,2.6h-2.9c-0.1,0-0.1,0-0.2,0.1c0,0-0.1,0.1-0.1,0.2c0,0.1,0,0.1,0.1,0.2c0,0,0.1,0.1,0.2,0.1h2.9L529,93
			c0,0-0.1,0.1-0.1,0.2c0,0.1,0,0.1,0.1,0.2c0,0,0.1,0.1,0.2,0.1c0.1,0,0.1,0,0.2-0.1l2.6-2.6v2.9c0,0.1,0,0.1,0.1,0.2
			c0,0,0.1,0.1,0.2,0.1c0.1,0,0.1,0,0.2-0.1c0,0,0.1-0.1,0.1-0.2v-2.9l2.6,2.6c0,0,0.1,0.1,0.2,0.1c0.1,0,0.1,0,0.2-0.1
			c0,0,0.1-0.1,0.1-0.2c0-0.1,0-0.1-0.1-0.2l-2.6-2.6h2.9c0.1,0,0.1,0,0.2-0.1c0,0,0.1-0.1,0.1-0.2c0-0.1,0-0.1-0.1-0.2
			C535.8,90,535.7,90,535.7,90z"/>
		<path id="XMLID_34_" class="st4" d="M546.1,90h-2.9l2.6-2.6c0,0,0.1-0.1,0.1-0.2c0-0.1,0-0.1-0.1-0.2c0,0,0,0-0.1-0.1
			c0,0-0.1,0-0.1,0s-0.1,0-0.1,0c0,0-0.1,0-0.1,0.1l-2.6,2.6v-2.9c0-0.1,0-0.1-0.1-0.2c0,0-0.1-0.1-0.2-0.1c-0.1,0-0.1,0-0.2,0.1
			c0,0-0.1,0.1-0.1,0.2v2.9l-2.6-2.6c0,0,0,0-0.1-0.1c0,0-0.1,0-0.1,0c0,0-0.1,0-0.1,0c0,0-0.1,0-0.1,0.1c0,0-0.1,0.1-0.1,0.2
			c0,0.1,0,0.1,0.1,0.2L542,90h-2.9c-0.1,0-0.1,0-0.2,0.1c0,0-0.1,0.1-0.1,0.2c0,0.1,0,0.1,0.1,0.2c0,0,0.1,0.1,0.2,0.1h2.9
			l-2.6,2.6c0,0-0.1,0.1-0.1,0.2c0,0.1,0,0.1,0.1,0.2c0,0,0.1,0.1,0.2,0.1c0.1,0,0.1,0,0.2-0.1l2.6-2.6v2.9c0,0.1,0,0.1,0.1,0.2
			c0,0,0.1,0.1,0.2,0.1c0.1,0,0.1,0,0.2-0.1c0,0,0.1-0.1,0.1-0.2v-2.9l2.6,2.6c0,0,0.1,0.1,0.2,0.1c0.1,0,0.1,0,0.2-0.1
			c0,0,0.1-0.1,0.1-0.2c0-0.1,0-0.1-0.1-0.2l-2.6-2.6h2.9c0.1,0,0.1,0,0.2-0.1c0,0,0.1-0.1,0.1-0.2c0-0.1,0-0.1-0.1-0.2
			C546.2,90,546.2,90,546.1,90z"/>
		<path id="XMLID_33_" class="st4" d="M556.5,90h-2.9l2.6-2.6c0,0,0.1-0.1,0.1-0.2c0-0.1,0-0.1-0.1-0.2c0,0-0.1,0-0.1-0.1
			c0,0-0.1,0-0.1,0c0,0-0.1,0-0.1,0c0,0-0.1,0-0.1,0.1l-2.6,2.6v-2.9c0-0.1,0-0.1-0.1-0.2c0,0-0.1-0.1-0.2-0.1c-0.1,0-0.1,0-0.2,0.1
			c0,0-0.1,0.1-0.1,0.2v2.9l-2.6-2.6c0,0-0.1,0-0.1-0.1c0,0-0.1,0-0.1,0c0,0-0.1,0-0.1,0c0,0-0.1,0-0.1,0.1c0,0-0.1,0.1-0.1,0.2
			c0,0.1,0,0.1,0.1,0.2l2.6,2.6h-2.9c-0.1,0-0.1,0-0.2,0.1c0,0-0.1,0.1-0.1,0.2c0,0.1,0,0.1,0.1,0.2c0,0,0.1,0.1,0.2,0.1h2.9
			l-2.6,2.6c0,0-0.1,0.1-0.1,0.2c0,0.1,0,0.1,0.1,0.2c0,0,0.1,0.1,0.2,0.1c0.1,0,0.1,0,0.2-0.1l2.6-2.6v2.9c0,0.1,0,0.1,0.1,0.2
			c0,0,0.1,0.1,0.2,0.1c0.1,0,0.1,0,0.2-0.1c0,0,0.1-0.1,0.1-0.2v-2.9l2.6,2.6c0,0,0.1,0.1,0.2,0.1c0.1,0,0.1,0,0.2-0.1
			c0,0,0.1-0.1,0.1-0.2c0-0.1,0-0.1-0.1-0.2l-2.6-2.6h2.9c0.1,0,0.1,0,0.2-0.1c0,0,0.1-0.1,0.1-0.2c0-0.1,0-0.1-0.1-0.2
			C556.7,90,556.6,90,556.5,90z"/>
		<path id="XMLID_32_" class="st4" d="M567,90h-2.9l2.6-2.6c0,0,0.1-0.1,0.1-0.2c0-0.1,0-0.1-0.1-0.2c0,0-0.1,0-0.1-0.1
			c0,0-0.1,0-0.1,0c0,0-0.1,0-0.1,0c0,0-0.1,0-0.1,0.1l-2.6,2.6v-2.9c0-0.1,0-0.1-0.1-0.2c0,0-0.1-0.1-0.2-0.1c-0.1,0-0.1,0-0.2,0.1
			c0,0-0.1,0.1-0.1,0.2v2.9l-2.6-2.6c0,0,0,0-0.1-0.1c0,0-0.1,0-0.1,0c0,0-0.1,0-0.1,0c0,0-0.1,0-0.1,0.1c0,0-0.1,0.1-0.1,0.2
			c0,0.1,0,0.1,0.1,0.2l2.6,2.6H560c-0.1,0-0.1,0-0.2,0.1c0,0-0.1,0.1-0.1,0.2c0,0.1,0,0.1,0.1,0.2c0,0,0.1,0.1,0.2,0.1h2.9
			l-2.6,2.6c0,0-0.1,0.1-0.1,0.2c0,0.1,0,0.1,0.1,0.2c0,0,0.1,0.1,0.2,0.1c0.1,0,0.1,0,0.2-0.1l2.6-2.6v2.9c0,0.1,0,0.1,0.1,0.2
			c0,0,0.1,0.1,0.2,0.1c0.1,0,0.1,0,0.2-0.1c0,0,0.1-0.1,0.1-0.2v-2.9l2.6,2.6c0,0,0.1,0.1,0.2,0.1c0.1,0,0.1,0,0.2-0.1
			c0,0,0.1-0.1,0.1-0.2c0-0.1,0-0.1-0.1-0.2l-2.6-2.6h2.9c0.1,0,0.1,0,0.2-0.1c0,0,0.1-0.1,0.1-0.2c0-0.1,0-0.1-0.1-0.2
			C567.1,90,567,90,567,90z"/>
		<path id="XMLID_31_" class="st4" d="M577.4,90h-2.9l2.6-2.6c0,0,0.1-0.1,0.1-0.2c0-0.1,0-0.1-0.1-0.2c0,0,0,0-0.1-0.1
			c0,0-0.1,0-0.1,0c0,0-0.1,0-0.1,0c0,0-0.1,0-0.1,0.1l-2.6,2.6v-2.9c0-0.1,0-0.1-0.1-0.2c0,0-0.1-0.1-0.2-0.1c-0.1,0-0.1,0-0.2,0.1
			c0,0-0.1,0.1-0.1,0.2v2.9l-2.6-2.6c0,0-0.1,0-0.1-0.1c0,0-0.1,0-0.1,0c0,0-0.1,0-0.1,0c0,0-0.1,0-0.1,0.1c0,0-0.1,0.1-0.1,0.2
			c0,0.1,0,0.1,0.1,0.2l2.6,2.6h-2.9c-0.1,0-0.1,0-0.2,0.1c0,0-0.1,0.1-0.1,0.2c0,0.1,0,0.1,0.1,0.2c0,0,0.1,0.1,0.2,0.1h2.9
			l-2.6,2.6c0,0-0.1,0.1-0.1,0.2c0,0.1,0,0.1,0.1,0.2c0,0,0.1,0.1,0.2,0.1c0.1,0,0.1,0,0.2-0.1l2.6-2.6v2.9c0,0.1,0,0.1,0.1,0.2
			c0,0,0.1,0.1,0.2,0.1c0.1,0,0.1,0,0.2-0.1c0,0,0.1-0.1,0.1-0.2v-2.9l2.6,2.6c0,0,0.1,0.1,0.2,0.1c0.1,0,0.1,0,0.2-0.1
			c0,0,0.1-0.1,0.1-0.2c0-0.1,0-0.1-0.1-0.2l-2.6-2.6h2.9c0.1,0,0.1,0,0.2-0.1c0,0,0.1-0.1,0.1-0.2c0-0.1,0-0.1-0.1-0.2
			C577.5,90,577.5,90,577.4,90z"/>
		<path id="XMLID_30_" class="st4" d="M587.9,90H585l2.6-2.6c0,0,0.1-0.1,0.1-0.2c0-0.1,0-0.1-0.1-0.2c0,0-0.1,0-0.1-0.1
			c0,0-0.1,0-0.1,0c0,0-0.1,0-0.1,0c0,0-0.1,0-0.1,0.1l-2.6,2.6v-2.9c0-0.1,0-0.1-0.1-0.2c0,0-0.1-0.1-0.2-0.1c-0.1,0-0.1,0-0.2,0.1
			c0,0-0.1,0.1-0.1,0.2v2.9l-2.6-2.6c0,0-0.1,0-0.1-0.1c0,0-0.1,0-0.1,0c0,0-0.1,0-0.1,0c0,0-0.1,0-0.1,0.1c0,0-0.1,0.1-0.1,0.2
			c0,0.1,0,0.1,0.1,0.2l2.6,2.6h-2.9c-0.1,0-0.1,0-0.2,0.1c0,0-0.1,0.1-0.1,0.2c0,0.1,0,0.1,0.1,0.2c0,0,0.1,0.1,0.2,0.1h2.9
			l-2.6,2.6c0,0-0.1,0.1-0.1,0.2c0,0.1,0,0.1,0.1,0.2c0,0,0.1,0.1,0.2,0.1c0.1,0,0.1,0,0.2-0.1l2.6-2.6v2.9c0,0.1,0,0.1,0.1,0.2
			c0,0,0.1,0.1,0.2,0.1s0.1,0,0.2-0.1c0,0,0.1-0.1,0.1-0.2v-2.9l2.6,2.6c0,0,0.1,0.1,0.2,0.1c0.1,0,0.1,0,0.2-0.1
			c0,0,0.1-0.1,0.1-0.2c0-0.1,0-0.1-0.1-0.2l-2.6-2.6h2.9c0.1,0,0.1,0,0.2-0.1c0,0,0.1-0.1,0.1-0.2c0-0.1,0-0.1-0.1-0.2
			C588,90,587.9,90,587.9,90z"/>
		<path id="XMLID_29_" class="st4" d="M598.3,90h-2.9l2.6-2.6c0,0,0.1-0.1,0.1-0.2c0-0.1,0-0.1-0.1-0.2c0,0,0,0-0.1-0.1
			c0,0-0.1,0-0.1,0c0,0-0.1,0-0.1,0c0,0-0.1,0-0.1,0.1l-2.6,2.6v-2.9c0-0.1,0-0.1-0.1-0.2c0,0-0.1-0.1-0.2-0.1c-0.1,0-0.1,0-0.2,0.1
			c0,0-0.1,0.1-0.1,0.2v2.9l-2.6-2.6c0,0-0.1,0-0.1-0.1c0,0-0.1,0-0.1,0s-0.1,0-0.1,0c0,0-0.1,0-0.1,0.1c0,0-0.1,0.1-0.1,0.2
			c0,0.1,0,0.1,0.1,0.2l2.6,2.6h-2.9c-0.1,0-0.1,0-0.2,0.1c0,0-0.1,0.1-0.1,0.2c0,0.1,0,0.1,0.1,0.2c0,0,0.1,0.1,0.2,0.1h2.9
			l-2.6,2.6c0,0-0.1,0.1-0.1,0.2c0,0.1,0,0.1,0.1,0.2c0,0,0.1,0.1,0.2,0.1c0.1,0,0.1,0,0.2-0.1l2.6-2.6v2.9c0,0.1,0,0.1,0.1,0.2
			c0,0,0.1,0.1,0.2,0.1c0.1,0,0.1,0,0.2-0.1c0,0,0.1-0.1,0.1-0.2v-2.9l2.6,2.6c0,0,0.1,0.1,0.2,0.1c0.1,0,0.1,0,0.2-0.1
			c0,0,0.1-0.1,0.1-0.2c0-0.1,0-0.1-0.1-0.2l-2.6-2.6h2.9c0.1,0,0.1,0,0.2-0.1c0,0,0.1-0.1,0.1-0.2c0-0.1,0-0.1-0.1-0.2
			C598.4,90,598.3,90,598.3,90z"/>
		
			<linearGradient id="XMLID_97_" gradientUnits="userSpaceOnUse" x1="602.8378" y1="-4.2815" x2="678.8929" y2="-4.2815" gradientTransform="matrix(1 0 0 -1 0 200)">
			<stop  offset="0" style="stop-color:#808080;stop-opacity:0.25"/>
			<stop  offset="0.54" style="stop-color:#808080;stop-opacity:0.12"/>
			<stop  offset="1" style="stop-color:#808080;stop-opacity:0.1"/>
		</linearGradient>
		<path id="XMLID_26_" class="st12" d="M678.3,150.4c0-0.6-0.1-1.2-0.2-1.8c-0.4-1.7-1.5-3.7-3.1-4.2c-1.7-0.5-3.4-1.2-4.9-2.1
			c-0.3-5.3,0.9-10.8-0.4-15.9c-0.5-1.9-1.3-3.7-1.5-5.6c-0.3-2.4,0.4-5-0.6-7.2c-0.8-1.7-2.4-3-4.2-3.6c-1.8-0.6-3.7-0.8-5.6-1
			c-2.4-0.2-10.1-1.1-12.8,1c-0.2,0.1-0.4,0.3-0.5,0.5c-0.1,0.1-0.1,0.2-0.2,0.3l0,0c-0.1,0.1-0.1,0.2-0.1,0.3
			c0,0.1-0.1,0.2-0.1,0.4c0,0,0,0.1,0,0.1c0,0,0,0.2,0,0.3v0.1c0,0.1,0,0.2,0,0.3c0,0.1,0,0.1,0,0.1c0,0.4,0.1,0.9,0.1,1.3
			c0,0.2,0,0.4-0.1,0.7c-0.2,0.6-0.4,1.1-0.8,1.6l-0.1,0.1c-0.1,0.1-0.1,0.2-0.2,0.2c0,0.1-0.1,0.1-0.1,0.2c0,0.1-0.1,0.1-0.1,0.2
			c0,0.1-0.1,0.2-0.1,0.3c0,0.1-0.1,0.1-0.1,0.1c-0.1,0.1-0.1,0.3-0.1,0.4c-0.1,0.4-0.1,0.9,0,1.3c0.1,0.6,0.4,1.1,0.7,1.6
			c0.1,0.2,0.3,0.4,0.4,0.6l0.3,0.5c-0.1,0.5-0.1,0.9-0.1,1.4c0,1.6,0.4,3.1,1,4.5c0.7,1.4,1.7,2.6,2.9,3.6c0.2,2.1,0.2,4.2-0.1,6.3
			c0,0.4-0.1,0.9-0.2,1.3c-0.1,0.4-0.1,0.7-0.2,1.1c-0.7,0.1-1.5,0-2.2-0.2c-0.3-0.1-0.7-0.3-1-0.4c-1.4-0.4-2.9,1.1-4.4,0.6
			c0,0.1,0,0.1-0.1,0.2c-0.3-0.2-0.6-0.3-1-0.3c-0.9,0-1.5-0.7-2.2-1.2l-1.9-1.8c-0.1-0.1-0.2-0.2-0.3-0.4c-0.1-0.2-0.2-0.4-0.2-0.6
			c-0.3-1-1.1-1.8-1.8-2.6c-0.1-0.2-0.3-0.3-0.5-0.4c-0.1,0-0.2,0-0.2,0c-0.1-0.1-0.1-0.1-0.2-0.2c-0.1-0.1-0.3-0.3-0.4-0.4
			c-0.9-0.8-1-1.6-1.8-2.5c-0.7-0.9-1.3-1.8-1.9-2.8c-0.1-0.5-0.2-1.1-0.3-1.6c-0.3-1.2-0.6-2.5-1.1-3.6l-1-2.2l-0.1,0.1
			c-0.7-1.1-1.5-1.7-2.2-1.5c-1.2,0.2-1.7,2.5-1.5,5.4l0.4,3c0,0.1,0,0.1,0.1,0.2c-0.1,0.4-0.1,0.7-0.1,1.1c0,0.4,0.4,0.7,0.6,1.1
			c0.3,0.5,0.5,1.1,0.5,1.7c0,0.2-0.1,0.4-0.1,0.6c0,0.5,0.2,0.9,0.5,1.3l2.5,4.2l0.5,0.9l0,0c0.2,0.3,0.4,0.6,0.7,0.8
			c0.1,1,0.4,2.1,0.8,3c0.1,0.2,0.2,0.4,0.3,0.5c0.7,1.1,1.5,2.1,2.3,3l1.2,1.3c1.2,1.3,2.3,2.6,3.6,3.8c0.5,0.5,1,0.9,1.6,1.1
			c0.3,0.1,0.6,0.2,0.9,0.1c0.3,0,0.6-0.2,0.9-0.4c0,0.6,0,1.2,0,1.8c0.2,0,0.4,0.1,0.5,0.2c0.2,0.1,0.3,0.2,0.4,0.4
			c0.1,0.2,0.1,0.4,0.1,0.5c0,0.2-0.1,0.4-0.2,0.5c-1,2.7-2.1,5.4-3.7,7.8c1.1,0.7,2.1,1.4,3.1,2.4c0.6,0.7,1.1,1.4,1.6,2.2
			c0,0.4,0.1,0.7,0.1,1.1c0.4,5.9-1.9,11.8-4,17.4c-0.6,1.6-1.2,3.3-1.2,4.9c-0.4,0.2-0.8,0.5-1.1,0.8c0.4,1.1,0.2,2,0.2,3.1
			c0,0.7-0.2,1.4-0.4,2c-0.2,0.4-0.5,0.9-0.7,1.3c-1.3,2.3-1.6,5-1.8,7.6c-0.2,1.6,0.5,3.5-0.3,4.9c-1.2,2.4-2.3,5-2.5,7.6
			c0,0.6-0.1,1.2-0.2,1.8c-0.2,0.5-0.4,0.9-0.6,1.4c-0.1,0.7-0.2,1.3-0.1,2c0.1,2.4-0.3,4.8-1,7c-0.6,1.8-1.3,3.7-0.8,5.5
			c-1.2,1.3-1.9,2.9-2.1,4.6c0,0.4-0.1,0.9-0.2,1.3c-0.2,0.4-0.4,0.9-0.6,1.3c-1,1.8-1.5,3.9-1.4,6c-1.5,2-2.2,4.5-2.7,7
			c-0.4,2.5-0.6,5-1.2,7.5c-0.8,3.2-2.1,6.5-2.4,9.8c-1.6,1-2.3,3-2.6,4.9s-0.4,3.9-1.1,5.6c-0.4,0.9-1,1.7-1.4,2.6
			c-0.3,0.7-0.5,1.5-0.6,2.3c-0.2,1.2-0.4,2.6-0.2,3.7c-0.4,0.4-0.9,0.8-1.5,1.1c0.1-0.3,0.1-0.6,0.2-0.9c-1.3,1.2-3.6,0.8-4.6,2.2
			c-0.3,0.5-0.4,1-0.3,1.5c0.1,0.5,0.4,1,0.8,1.3c0.3,0.2,0.7,0.3,1,0.4c2.5,0.8,5,1.6,7.6,1.2c0.3,0,0.6-0.1,0.9-0.3
			c0.3-0.2,0.6-0.6,0.8-0.9c0.4-0.6,0.8-1.2,1.1-1.8c0.9,0.3,1.8,0.5,2.8,0.7c0.1,0.8,0.2,1.6,0.2,2.4c0.5,0.1,1.2,0.1,1.4-0.3
			c0.1-0.2,0.1-0.4,0.1-0.6c0-0.4,0-0.8,0.1-1.3h0.1c1.5,0.1,3-0.2,4.4-0.9c-0.5-4.4,1.2-8.7,2.7-12.9c1.6-4.4,3-8.8,4.4-13.3
			c1-3.1,2.1-6.2,3.1-9.3c1.2-4,2.5-7.9,3.7-11.9c0.5-1.7,1.1-3.5,1.7-5.2c1.3-3.5,2.8-6.9,4.6-10.3c0.5-0.9,1-1.9,1.4-2.8
			c0.5-1.2,0.9-2.4,1.2-3.7c0.9-2.5,1.9-5,3.1-7.3c0-0.1,0.1-0.1,0.1-0.2c0.4,1.6,0.8,3.3,1.1,5c0.4,2,0.4,4.1,0.1,6.1
			c-0.2,1.4-0.7,2.8-0.6,4.2c0.1,1.9,1.1,3.7,1.6,5.6c0.3,1.4,0.5,2.8,0.6,4.3c0.1,2.2,1.4,4.7,0.5,6.8c-2.7,6.6-1.4,14-2.9,20.9
			c-0.8,3.5-3.2,6.9-3,10.5c0.1,2.6,0.4,5.1,0.7,7.7c0.1,0.8,0.3,1.6,0.6,2.3c0.2,0.4,0.4,0.8,0.7,1.1c-0.2,0.1-0.4,0.3-0.6,0.8
			c-0.4,1.2,0,2.8,1.1,3.5c0.4,0.2,0.9,0.4,1.4,0.5c0.7,0.2,1.4,0.3,2.1,0.3c0.2,0,0.4,0,0.7-0.1c0.8,0.3,1.6,0.6,2.3,0.8
			c0,0.2,0,0.4,0.1,0.6c0,0.1,0,0.2,0.1,0.3c0,0.1,0.1,0.2,0.2,0.3c0.1,0.1,0.3,0.1,0.4,0.1h2.7c0-0.2,0-0.5,0-0.7
			c0.3,0,0.6,0,0.9-0.1c0.3-0.1,0.6-0.3,0.8-0.5c0.2-0.3,0.4-0.7,0.5-1c0.7-2.5,1.5-5,2.2-7.5c0.9-2.8,1.2-5.7,1.1-8.5
			c-1-9.2,1.1-18.3,0.5-27.5c-0.4-5.5-0.1-11.1,0.8-16.5c0.2-1.2,0.5-2.5,0.6-3.7c0.2-2.3,0-4.7,0.1-7c0.1-0.8,0.2-1.6,0.3-2.4
			c0.7-5,1-10,1.1-15c0-1.7-0.1-3.3-0.3-5c0.5-0.1,1-0.4,1.4-0.8c0.4-0.6,0.3-1.4,0.3-2.1c0-1.8,0.7-3.4,1.3-5.1
			c0.8-2.3,1.4-4.6,1.9-7c0.5-1.9,0.8-3.9,0.8-5.8c0-0.2,0-0.4,0-0.6c0.2-0.1,0.3-0.3,0.5-0.5c0.1-0.3,0.2-0.6,0.2-0.9
			c0.2-1.3,0.4-2.5,0.5-3.8c0.1-0.9,0.3-1.8,0.4-2.7l1.6-11c0.1-1,0.3-1.9,0.4-2.9l0.4-2.9c0-0.3,0.1-0.7,0.1-1
			C679.6,155.4,678.4,152.7,678.3,150.4z M665.1,191.7c-0.6-1.4-1.1-2.8-1-4.3H664c0.1-0.5,0.1-1-0.1-1.4c-0.2-0.4-0.4-0.7-0.6-1
			c-0.2-0.4-0.3-0.9-0.3-1.4c-0.1-3,0.1-6,0.7-9c0.1-0.3,0.1-0.7,0.2-1c0.2-0.1,0.4-0.3,0.6-0.4c0.3-0.3,0.5-0.6,0.6-1
			c0.6-1.1,1.1-2.3,1.5-3.4c0.2-0.4,0.4-0.8,0.8-0.9c-0.1,2.9,0.2,5.9-1,8.5c-0.2,0.4-0.4,0.9-0.5,1.3c-0.1,0.7,0.2,1.5,0.1,2.2
			c-0.1,0.4-0.2,0.7-0.3,1.1c0,0.2,0,0.4,0,0.6c0.1,0.2,0.2,0.4,0.3,0.5c0.1,0,0.1,0.1,0.2,0.1c0,0.2-0.1,0.4-0.1,0.6
			c0,0.4-0.1,0.8-0.1,1c-0.1,1.2-0.2,2.4-0.1,3.7c0,1.3,0,2.6,0,4c0,0.4,0,0.8-0.2,1.1c-0.1,0.2-0.2,0.4-0.4,0.5
			C665.4,192.5,665.3,192.1,665.1,191.7z"/>
		<path id="XMLID_25_" class="st13" d="M625.9,134.1c1.5-0.3,2-4,1.2-8.3c-0.9-4.3-2.8-7.5-4.3-7.2c-1.5,0.3-2,4-1.2,8.3
			C622.4,131.2,624.4,134.4,625.9,134.1z"/>
		<path id="XMLID_24_" class="st6" d="M649,293.8c-0.4,1.2,0,2.8,1.1,3.4c0.4,0.2,0.9,0.4,1.4,0.5c0.7,0.2,1.4,0.3,2.1,0.3
			c0.9,0,1.7-0.4,2.5-0.5c0.1,0,0.2,0,0.3,0c0,0,0.1,0.1,0.1,0.2c0,0.1,0,0.1,0,0.2c0,0.5,0,1,0.1,1.5c0,0.1,0,0.2,0.1,0.3
			c0,0.1,0.1,0.2,0.2,0.3c0.1,0.1,0.3,0.1,0.4,0.1h2.7c0.1-2.4-0.2-4.7-0.8-7c0-0.2-0.1-0.3-0.2-0.5c-0.2-0.3-0.5-0.4-0.9-0.5
			c-0.7-0.3-1.4-0.4-2.1-0.4c-0.9,0.1-1.6,0.7-2.3,1.1c-0.7,0.5-1.7,0.9-2.6,0.6C650.2,293.1,649.5,292.4,649,293.8z"/>
		<path id="XMLID_23_" class="st13" d="M609.5,291.6c-0.8,0.8-1.7,1.4-2.7,1.8l-0.5,0.2c-0.1,0-0.1,0.1-0.2,0.1c0,0,0,0.1,0,0.1
			c0,0,0,0.1,0,0.1c0.4,0.6,0.9,1,1.6,1.3c0.7,0.2,1.4,0.3,2,0.1c0.3-0.1,0.6-0.2,0.8-0.4c0.4-0.4,0.6-1,0.6-1.6
			c0.2-0.6,0.1-1.2-0.1-1.8C610.5,289.9,610.2,290.6,609.5,291.6z"/>
		<path id="XMLID_22_" class="st6" d="M619.8,297.7c0,0.2,0,0.4-0.1,0.6c-0.2,0.5-0.9,0.4-1.4,0.3c-0.1-1.7-0.3-3.4-0.6-5
			c-1,0-1.7,0.9-2.2,1.7l-1.3,2.1c-0.2,0.4-0.5,0.7-0.8,0.9c-0.3,0.1-0.6,0.2-0.9,0.3c-2.5,0.4-5.1-0.4-7.6-1.2
			c-0.4-0.1-0.7-0.2-1-0.4c-0.4-0.3-0.7-0.8-0.8-1.3c-0.1-0.5,0-1.1,0.3-1.5c1-1.4,3.3-1,4.6-2.1c-0.1,0.8-0.4,1.6-0.7,2.4
			c1.7-0.3,2.9-1.8,4.2-2.9c0.3-0.3,0.8-0.5,1.2-0.6c0.3,0,0.7,0,1,0.1c1.6,0.4,3.1,1.1,4.4,2.2c0.5,0.4,1.3,1,1.6,1.6
			C620.1,295.5,619.8,296.9,619.8,297.7z"/>
		<path id="XMLID_21_" class="st13" d="M654,133.8c5.7,0,10.3-4.6,10.3-10.3s-4.6-10.3-10.3-10.3c-5.7,0-10.3,4.6-10.3,10.3
			S648.3,133.8,654,133.8z"/>
		<path id="XMLID_20_" class="st6" d="M674.2,184.1c0,2-0.3,3.9-0.8,5.8c-0.5,2.4-1.1,4.7-1.9,7c-0.6,1.7-1.3,3.3-1.3,5.1
			c0,0.7,0.1,1.5-0.3,2.1c-0.4,0.4-0.9,0.7-1.5,0.8c-0.3,0.1-0.5,0.2-0.7,0.4c-0.2,0.2-0.4,0.4-0.5,0.7c-0.5-0.7-0.8-1.5-1-2.3
			c-0.9-2.7-1.7-5.5-2.5-8.2c-0.1-0.2-0.1-0.3-0.1-0.5c0-0.2,0.1-0.3,0.2-0.5c0.1-0.1,0.3-0.2,0.4-0.2c0.5-0.2,1-0.5,1.4-0.9
			c0.2-0.2,0.3-0.4,0.5-0.6c0.1-0.4,0.2-0.7,0.2-1.1c0-1.3,0-2.6,0-3.9c0-1.2,0-2.4,0.1-3.6c0-0.2,0-0.6,0.1-1
			c0.1-0.8,0.2-1.7,0.6-2c0.6-0.4,2.5,0.1,3.2,0.2c1.2,0.2,2.5,0.4,3.7,0.6C674.1,182.6,674.2,183.4,674.2,184.1z"/>
		<path id="XMLID_19_" class="st6" d="M632.8,135c-0.4,0.8-1.4,1.2-2.1,1.7l-2.5,1.7c-0.2,0.2-0.4,0.3-0.6,0.3
			c-0.2,0.1-0.4,0.1-0.7,0.1c-0.2-0.1-0.4-0.2-0.6-0.3c-0.2-0.1-0.3-0.3-0.4-0.5c0,0,0,0,0,0l-0.5-0.9l-2.5-4.2
			c-0.3-0.4-0.4-0.8-0.5-1.3c0-0.2,0.1-0.4,0.1-0.6c0-0.6-0.2-1.2-0.5-1.7c-0.2-0.4-0.6-0.7-0.6-1.1c0-0.5,0.1-1.1,0.3-1.6
			c0.3-0.5,0.6-0.9,1.1-1.2c0.2-0.2,0.5-0.3,0.7-0.5c0.1-0.1,0.3-0.2,0.4-0.2c0.4-0.1,0.8,0.3,1.2,0.3c1.8,1.2,2.5,3.5,3.9,5.1
			c0.8,0.9,0.9,1.6,1.8,2.5c0.1,0.1,0.3,0.3,0.4,0.4c0.2,0.2,0.3,0.4,0.4,0.6C632,134.1,633,134.6,632.8,135z"/>
		<path id="XMLID_18_" class="st13" d="M650.4,133.8c0.7,1.6,1.3,3.3,1.1,5c0,0.5-0.2,0.9-0.4,1.3c-0.7,1.1-2.2,1.3-3.5,1.4
			c-0.3,0-0.6,0-0.8,0.1c-0.3,0.1-0.5,0.2-0.7,0.4c-0.2,0.3-0.3,0.6-0.2,0.9c0,0.3,0.1,0.6,0.3,0.8c0.4,0.4,0.9,0.8,1.5,1
			c2.1,0.9,4.3,1.7,6.5,1.5c1-0.1,2.1-0.4,3.1-0.6c1.1-0.1,2.3-0.2,3.4-0.2c1.4,0,2.7-0.2,4-0.3l3.6-0.4c0.2,0,0.4-0.1,0.5-0.2
			c0.3-0.3-0.1-0.8-0.4-1c-1.9-1.4-4.3-2.4-5.4-4.5c-0.5-1-0.7-2.2-1-3.2c-0.4-1.1-1-2-1.2-3.1c-0.1-1-0.2-1.9-0.2-2.9
			c0-1-0.3-1.9-1-2.6c-0.7-0.7-1.7-0.8-2.7-0.9c-2.4-0.1-4.9,0.5-6.6,2.1c-0.5,0.5-0.8,1-1.3,1.4c-0.5,0.4-1.1,0.5-0.8,1.1
			c0.3,0.5,0.9,0.9,1.2,1.3C649.8,132.7,650.1,133.2,650.4,133.8z"/>
		<path id="XMLID_17_" class="st6" d="M670.6,148.2c-0.6,3.8-1.6,7.6-3,11.2c-0.7,1.6-1.3,3.3-1.8,5c-0.4,1.5-0.3,3.2-0.7,4.7
			c-0.4,1.9-0.9,3.9-1.2,5.8c-0.6,3-0.8,6-0.7,9c0,0.5,0.1,0.9,0.3,1.4c0.2,0.4,0.4,0.7,0.6,1c0.1,0.3,0.2,0.7,0.1,1
			c0,0.3-0.1,0.7-0.3,1c-0.3,0.6-0.6,1.1-1,1.6c-4.6,1.4-9.6,0.9-14.4,1.2c-4.4,0.3-8.9,1.2-13.3,0.4c-0.5-2,0.3-4.1,1-6
			c2.1-5.6,4.3-11.5,4-17.4c0-0.7-0.1-1.4-0.2-2.1c-0.7-4.2,0.1-8.5,1.3-12.6c0.8-2.5,0.7-5.2,0.6-7.8c-0.1-0.9-0.1-1.7,0-2.6
			c0.1-0.9,0.4-1.7,0.9-2.4c0,0,0-0.1,0.1-0.1c0,0,0.2,0,0.4,0c0,0,0.1,0,0.1,0c0,0,0.1,0,0.1,0l0.1,0c0,0,0,0,0.1,0s0.1,0,0.1,0
			c0.1,0.1,0.2,0.3,0.4,0.4c0.4,0.1,0.7,0.1,1.1,0.1c0.4,0,0.9,0.1,1.3,0.2h0.1c0.6,0.1,1.3,0.1,1.9-0.2c0.4-0.1,0.8-0.3,1.2-0.5
			c0.1-0.1,0.8-0.2,0.9-0.3c0.5-0.3,0.4-1.6,0.4-2.1c0.1-0.5,0.2-1,0.4-1.5c0.2-0.4,0.5-0.7,0.9-0.9c0.4-0.2,0.8-0.3,1.2-0.4
			c0.9,0,1.7,0.1,2.5,0.2c1.9,0.3,3.8,0.2,5.6,0.6c0.9,0.2,1.9,0.5,2.8,0.1c0.2,0.1,0.3,0.3,0.3,0.5c0,0.2-0.1,0.5-0.1,0.7
			c-0.3,1.4,0.8,2.6,1.8,3.6c0.4,0.5,0.9,0.9,1.5,1.2c0.5,0.2,1,0.3,1.5,0.6c0.4,0.2,0.7,0.5,1,0.9c0.3,0.4,0.5,0.9,0.6,1.4
			C670.9,146.3,670.8,147.3,670.6,148.2z"/>
		<path id="XMLID_16_" class="st14" d="M670.6,148.2c-0.6,3.8-1.6,7.6-3,11.2c-0.7,1.6-1.3,3.3-1.8,5c-0.4,1.5-0.3,3.2-0.7,4.7
			c-0.4,1.9-0.9,3.9-1.2,5.8c-0.1,0.1-0.2,0.1-0.3,0.2c-0.6,0.3-1.3,0.5-1.9,0.6c-1.2,0.1-2.4,0.1-3.6-0.1l-7.1-0.9
			c-2.8-0.4-5.8-0.8-7.9-2.8c-1.2-1.1-1.9-2.4-2.8-3.8c0-0.7-0.1-1.4-0.2-2.1c-0.7-4.2,0.1-8.5,1.3-12.6c0.8-2.5,0.7-5.2,0.6-7.8
			c-0.1-0.9-0.1-1.7,0-2.6c0.1-0.9,0.4-1.7,0.9-2.4c0.1,0,0.3-0.1,0.4-0.1c0.1,0,0.2,0,0.3,0h0.1c0.2,0,0.3,0,0.5,0.1
			c0.3,0.1,0.7,0.2,1,0.4h0.1c0.4,0.1,0.9,0.2,1.3,0.2c0.7,0,1.3-0.1,2-0.1c0.8-0.1,1.6,0,2.4,0.4c0.5,0.4,0.9,0.8,1.3,1.2
			c0.5,0.4,1.1,0.7,1.7,0.9c4.3,1.6,9,1.5,13.2-0.3c0.4-0.2,0.9-0.3,1.3-0.3c0.3,0.1,0.7,0.2,1,0.4c0.3,0.2,0.6,0.3,0.9,0.5
			c0.3,0.4,0.5,0.9,0.6,1.4C670.9,146.3,670.8,147.3,670.6,148.2z"/>
		<path id="XMLID_15_" class="st4" d="M674.9,144.9c-2-0.6-3.9-1.4-5.7-2.5c-0.3-0.2-0.6-0.3-1-0.4c-0.5,0-0.9,0.1-1.3,0.3
			c-4.2,1.8-8.9,1.9-13.2,0.3c-0.6-0.2-1.2-0.5-1.7-0.9c-0.4-0.4-0.9-0.8-1.3-1.2c-1.6-1.1-3.9,0.2-5.7-0.5c-0.3-0.1-0.7-0.3-1-0.4
			c-1.4-0.4-2.9,1.1-4.3,0.6c-0.5,1.4-0.9,2.9-1.2,4.4c-0.2,1.7-0.3,3.5-0.3,5.2c0,1,0,2.1,0,3.1c0.2,0,0.3,0.1,0.5,0.2
			c0.1,0.1,0.3,0.2,0.4,0.4c0.1,0.2,0.1,0.4,0.1,0.5c0,0.2-0.1,0.4-0.2,0.5c-1,2.7-2.1,5.4-3.7,7.8c1.1,0.7,2.1,1.4,3.1,2.3
			c1.7,1.8,2.6,4.4,4.5,6.1c2.1,1.9,5.1,2.4,7.9,2.8l7.1,0.9c1.2,0.2,2.4,0.3,3.6,0.1c0.7-0.1,1.3-0.3,1.9-0.6
			c0.4-0.2,0.8-0.4,1.1-0.7c0.3-0.3,0.5-0.6,0.6-1c0.6-1.1,1.1-2.3,1.5-3.4c0.2-0.4,0.4-0.9,0.9-0.9c2.6-2.4,5.1-4.8,7.8-7.2
			c1.1-0.9,2-1.9,2.8-3c1.3-1.9,0.1-4.7,0-7c0-0.6-0.1-1.2-0.2-1.8C677.6,147.5,676.6,145.4,674.9,144.9z"/>
		<path id="XMLID_14_" class="st14" d="M632.8,135c-0.4,0.8-1.4,1.2-2.1,1.7l-2.5,1.7c-0.2,0.2-0.4,0.3-0.6,0.3
			c-0.2,0.1-0.4,0.1-0.7,0.1c-0.2-0.1-0.4-0.2-0.6-0.3c-0.2-0.1-0.3-0.3-0.4-0.5c0-0.1,0-0.2,0-0.4c0-0.4,0-0.8,0.2-1.2
			c0.2-0.6,0.6-1.1,1.1-1.4c0.9-0.9,2-1.6,3.3-2c0.2-0.1,0.4-0.1,0.6-0.1c0.1,0,0.2,0.1,0.2,0.1c0.2,0.2,0.3,0.4,0.4,0.6
			C632,134.1,633,134.6,632.8,135z"/>
		<path id="XMLID_13_" class="st4" d="M638.7,140.2c-0.8,0-1.5-0.6-2.2-1.2l-1.9-1.7c-0.1-0.1-0.2-0.2-0.3-0.4
			c-0.1-0.2-0.2-0.4-0.2-0.6c-0.4-1-1-1.9-1.8-2.6c-0.1-0.2-0.3-0.3-0.5-0.4c-0.2,0-0.4,0-0.6,0.1c-1.2,0.4-2.3,1.1-3.3,2
			c-0.5,0.4-0.9,0.9-1.1,1.4c-0.1,0.4-0.2,0.8-0.2,1.2c0,1.3,0.3,2.6,0.9,3.8c0.1,0.2,0.2,0.4,0.3,0.5c0.7,1.1,1.4,2.1,2.3,3
			l1.2,1.3c1.2,1.3,2.3,2.6,3.6,3.8c0.5,0.5,1,0.9,1.6,1.1c0.3,0.1,0.6,0.2,1,0.1c0.3-0.1,0.6-0.2,0.9-0.4c0.2-0.3,0.4-0.6,0.5-0.9
			c0.8-2,1.5-4.1,1.5-6.2c0-0.9,0-1.7-0.1-2.6C640.2,140.6,639.5,140.3,638.7,140.2z"/>
		<path id="XMLID_12_" class="st15" d="M668.8,209.8c0,5-0.4,10-1.1,14.9c-0.1,0.8-0.2,1.6-0.3,2.4c-0.2,2.3,0.1,4.7-0.1,7
			c-0.1,1.2-0.4,2.5-0.6,3.7c-1,5.4-1.3,11-0.8,16.5c0.7,9.2-1.4,18.3-0.5,27.5c0.1,1.8,0,3.6-0.3,5.3c-0.2,1.1-0.4,2.2-0.8,3.2
			c-0.7,2.5-1.5,5-2.2,7.5c-0.1,0.4-0.3,0.7-0.5,1c-0.3,0.2-0.6,0.4-0.9,0.5c-0.3,0.1-0.7,0.1-1,0.1c-2.9-0.1-5.6-1.3-8.2-2.5
			c-0.3-0.1-0.6-0.3-0.8-0.5c-0.5-0.6-0.5-1.4-0.7-2.2c-0.2-0.7-0.9-1.4-1.3-2.2c-0.3-0.7-0.5-1.5-0.5-2.3c-0.3-2.5-0.6-5.1-0.7-7.7
			c-0.2-3.6,2.2-6.9,3-10.4c1.5-6.9,0.2-14.3,2.9-20.8c0.8-2.1-0.4-4.6-0.5-6.8c0-1.4-0.2-2.9-0.6-4.3c-0.5-1.9-1.5-3.6-1.6-5.6
			c-0.1-1.4,0.4-2.8,0.6-4.1c0.3-2,0.3-4.1-0.1-6.1c-0.3-1.7-0.7-3.3-1.1-5l-0.1,0.2c-1.2,2.4-2.3,4.8-3.1,7.3
			c-0.4,1.2-0.7,2.5-1.2,3.6c-0.4,1-0.9,1.9-1.4,2.8c-1.8,3.3-3.3,6.7-4.6,10.2c-0.6,1.7-1.2,3.5-1.7,5.2l-3.7,11.9
			c-1,3.1-2.1,6.2-3.1,9.3c-1.4,4.5-2.8,8.9-4.4,13.3c-1.5,4.1-3.3,8.4-2.7,12.8c-1.4,0.6-2.9,0.9-4.4,0.9c-2.6-0.2-5.1-0.8-7.5-1.8
			c-0.9-0.4-1.9-0.8-2.6-1.5c-1.1-1.3-0.8-3.3-0.5-5c0.1-0.8,0.3-1.5,0.6-2.3c0.4-0.9,1-1.7,1.4-2.6c0.8-1.7,0.8-3.7,1.1-5.6
			c0.3-1.9,1-3.9,2.6-4.9c0.3-3.3,1.6-6.6,2.4-9.8c0.6-2.4,0.8-5,1.2-7.5c0.4-2.5,1.2-5,2.7-7c-0.1-2.1,0.3-4.1,1.4-6
			c0.2-0.4,0.4-0.8,0.6-1.3c0.1-0.4,0.1-0.9,0.2-1.3c0.2-1.7,0.9-3.3,2.1-4.6c-0.5-1.8,0.2-3.7,0.8-5.5c0.8-2.2,1.1-4.6,1-7
			c-0.1-0.7,0-1.3,0.1-2c0.1-0.5,0.4-0.9,0.6-1.4c0.1-0.6,0.2-1.2,0.2-1.8c0.2-2.7,1.3-5.2,2.5-7.6c0.7-1.4,0.1-3.3,0.3-4.9
			c0.3-2.6,0.5-5.3,1.8-7.5c0.2-0.4,0.5-0.8,0.7-1.3c0.3-0.6,0.4-1.3,0.4-2c0-1.1,0.2-2.1-0.2-3.1c2.7-2.2,6.3-2.8,9.7-3
			c3.5-0.1,7,0.2,10.3-0.6c1-0.2,2-0.5,3-0.7c2.4-0.3,4.8,0.2,7.1,0.7c-0.2,1.5,0.4,2.9,1,4.3C667.5,197.7,668.8,203.7,668.8,209.8z
			"/>
		<path id="XMLID_11_" class="st14" d="M657.1,210.9l-5.7,12.8c-0.3-1.7-0.7-3.3-1.1-5l-0.1,0.2v-0.3l3.1-6.8L657.1,210.9z"/>
		<path id="XMLID_10_" class="st14" d="M674.2,184.1c-0.3,0.2-0.7,0.4-1.1,0.4c-0.6,0-1.3-0.1-1.9-0.3l-4.5-1.1
			c-0.1,0-0.3-0.1-0.4-0.1c0.1-0.8,0.2-1.7,0.6-2c0.6-0.4,2.5,0.1,3.2,0.2c1.2,0.2,2.5,0.4,3.7,0.6
			C674.1,182.6,674.2,183.4,674.2,184.1z"/>
		<path id="XMLID_9_" class="st4" d="M678,154.6c0.1,0.4,0.2,0.8,0.3,1.2c0.1,1,0.1,2.1-0.1,3.1l-0.4,2.8l-0.4,2.9l-1.6,11l-0.4,2.7
			l-0.5,3.8c0,0.3-0.1,0.6-0.2,0.9c-0.2,0.3-0.4,0.5-0.7,0.7c-0.3,0.2-0.6,0.3-0.9,0.3c-0.6,0-1.3-0.1-1.9-0.3l-4.5-1.1
			c-0.2,0-0.4-0.1-0.5-0.2c-0.1-0.1-0.2-0.3-0.3-0.5c-0.1-0.2-0.1-0.4,0-0.6c0.1-0.4,0.2-0.7,0.3-1.1c0.1-0.7-0.2-1.5-0.1-2.2
			c0.1-0.5,0.3-0.9,0.5-1.3c1.5-3.3,0.6-7.1,1.1-10.7c0.5-2.8,1.6-5.5,3.4-7.7c1.1-1.4,2.4-2.7,3.8-3.7c0.6-0.4,1.4-1.3,2.1-1.5
			C678,152.8,677.8,153.9,678,154.6z"/>
		<path id="XMLID_8_" class="st15" d="M644.1,111.8c-0.3,1,0.2,2.2,0,3.3c-0.3,1.2-1.4,2-1.7,3.2c-0.5,1.8,1,3.4,2.1,4.9
			c4.1,5.5,3.6,13.2,2.2,19.9c-1.1,5.4-2.7,10.7-4.7,15.9c-0.6,1.6-1.3,3.2-2.5,4.4c2.3-0.7,4.7-1.3,7-0.7c2.9,0.8,5.4,3.6,8.3,3
			c1.8-0.4,3-2,4.6-2.8c3-1.6,6.6-0.6,9.9-0.1c0.7,0.2,1.5,0.1,2.2-0.1c0.5-0.3,1-0.7,1.3-1.2c1.5-1.9,2.4-4.2,2.6-6.6
			c0.1-1.2-0.1-2.4-0.5-3.5c-0.4-1.1-1.1-2.1-1.9-3c-0.7-0.7-1.5-1.2-2.1-2c-0.5-0.9-0.8-2-0.8-3c-0.4-5.5,0.9-11-0.4-16.3
			c-0.5-1.9-1.3-3.7-1.5-5.6c-0.3-2.4,0.4-5-0.6-7.2c-0.8-1.7-2.4-3-4.2-3.6c-1.8-0.6-3.7-0.8-5.6-1
			C655,109.4,645.3,108.2,644.1,111.8z"/>
		<g id="XMLID_4_" class="st16">
			<path id="XMLID_7_" class="st14" d="M646.7,143c-1.1,5.4-2.7,10.7-4.7,15.8c0.3-0.7,0.6-1.4,0.9-2.1c2-5.2,3.6-10.5,4.7-15.9
				c1.4-6.8,2-14.4-2.2-19.9c-1-1.3-2.3-2.8-2.2-4.3c-0.4,0.5-0.7,1-0.8,1.6c-0.5,1.8,1,3.4,2.1,4.9
				C648.7,128.6,648.1,136.3,646.7,143z"/>
			<path id="XMLID_6_" class="st14" d="M644.2,114.5c0.4-0.5,0.7-1.1,0.9-1.7c0.1-0.7,0.1-1.5-0.1-2.2c-0.4,0.3-0.7,0.7-0.8,1.1
				C643.9,112.6,644.2,113.6,644.2,114.5z"/>
			<path id="XMLID_5_" class="st14" d="M673.8,159.3c-0.3,0.5-0.8,0.9-1.3,1.2c-0.7,0.2-1.4,0.3-2.2,0.1c-3.3-0.5-7-1.5-9.9,0.1
				c-1.6,0.9-2.8,2.4-4.6,2.8c-2.9,0.7-5.4-2.2-8.3-3c-2.1-0.6-4.2-0.1-6.3,0.5c-0.4,0.9-1,1.7-1.6,2.4c2.3-0.7,4.7-1.3,7-0.7
				c2.9,0.8,5.4,3.6,8.3,3c1.8-0.4,3-2,4.6-2.8c3-1.6,6.6-0.6,9.9-0.1c0.7,0.2,1.5,0.1,2.2-0.1c0.5-0.3,1-0.7,1.3-1.2
				c0.9-1.2,1.6-2.5,2.1-3.9C674.6,158.1,674.2,158.7,673.8,159.3z"/>
		</g>
	</g>
</g>
</svg>
