<svg width="24" height="24" viewBox="0 0 24 24" fill="none" xmlns="http://www.w3.org/2000/svg">
<circle cx="12" cy="12" r="12" fill="url(#paint0_linear_6_3686)"/>
<path fill-rule="evenodd" clip-rule="evenodd" d="M8.81037 14.6686C8.7037 14.6686 8.59637 14.6346 8.5057 14.5652C8.28704 14.3966 8.2457 14.0826 8.41437 13.8639L10.4097 11.2706C10.491 11.1646 10.6117 11.0959 10.7437 11.0792C10.8784 11.0619 11.0104 11.0992 11.115 11.1826L12.995 12.6592L14.6397 10.5372C14.809 10.3179 15.1224 10.2772 15.341 10.4479C15.5597 10.6172 15.5997 10.9312 15.4304 11.1492L13.477 13.6692C13.3957 13.7746 13.2757 13.8432 13.1437 13.8592C13.0104 13.8772 12.8784 13.8386 12.773 13.7566L10.8944 12.2806L9.20704 14.4732C9.10837 14.6012 8.96037 14.6686 8.81037 14.6686Z" fill="white"/>
<mask id="mask0_6_3686" style="mask-type:alpha" maskUnits="userSpaceOnUse" x="15" y="5" width="5" height="4">
<path fill-rule="evenodd" clip-rule="evenodd" d="M15.5303 5.3335H19.0929V8.89676H15.5303V5.3335Z" fill="white"/>
</mask>
<g mask="url(#mask0_6_3686)">
<path fill-rule="evenodd" clip-rule="evenodd" d="M17.3116 6.3335C16.8809 6.3335 16.5303 6.6835 16.5303 7.11483C16.5303 7.5455 16.8809 7.89683 17.3116 7.89683C17.7423 7.89683 18.0929 7.5455 18.0929 7.11483C18.0929 6.6835 17.7423 6.3335 17.3116 6.3335ZM17.3116 8.89683C16.3296 8.89683 15.5303 8.0975 15.5303 7.11483C15.5303 6.13216 16.3296 5.3335 17.3116 5.3335C18.2943 5.3335 19.0929 6.13216 19.0929 7.11483C19.0929 8.0975 18.2943 8.89683 17.3116 8.89683Z" fill="white"/>
</g>
<mask id="mask1_6_3686" style="mask-type:alpha" maskUnits="userSpaceOnUse" x="5" y="5" width="14" height="15">
<path fill-rule="evenodd" clip-rule="evenodd" d="M5.33301 5.89478H18.5743V19.1354H5.33301V5.89478Z" fill="white"/>
</mask>
<g mask="url(#mask1_6_3686)">
<path fill-rule="evenodd" clip-rule="evenodd" d="M14.8217 19.1354H9.08567C6.84101 19.1354 5.33301 17.5588 5.33301 15.2121V9.82411C5.33301 7.47411 6.84101 5.89478 9.08567 5.89478H13.931C14.207 5.89478 14.431 6.11878 14.431 6.39478C14.431 6.67078 14.207 6.89478 13.931 6.89478H9.08567C7.41367 6.89478 6.33301 8.04411 6.33301 9.82411V15.2121C6.33301 17.0154 7.38767 18.1354 9.08567 18.1354H14.8217C16.4937 18.1354 17.5743 16.9881 17.5743 15.2121V10.5194C17.5743 10.2434 17.7983 10.0194 18.0743 10.0194C18.3503 10.0194 18.5743 10.2434 18.5743 10.5194V15.2121C18.5743 17.5588 17.0663 19.1354 14.8217 19.1354Z" fill="white"/>
</g>
<defs>
<linearGradient id="paint0_linear_6_3686" x1="2.71698" y1="4.5283" x2="21.7358" y2="19.6981" gradientUnits="userSpaceOnUse">
<stop stop-color="#0F123F"/>
<stop offset="1" stop-color="#3A408F"/>
</linearGradient>
</defs>
</svg>
