<svg width="24" height="24" viewBox="0 0 24 24" fill="none" xmlns="http://www.w3.org/2000/svg">
<g id="Iconly/Light/Profile">
<g id="Profile">
<path id="Stroke 1" fill-rule="evenodd" clip-rule="evenodd" d="M11.9849 15.3462C8.11731 15.3462 4.81445 15.931 4.81445 18.2729C4.81445 20.6148 8.09636 21.2205 11.9849 21.2205C15.8525 21.2205 19.1545 20.6348 19.1545 18.2938C19.1545 15.9529 15.8735 15.3462 11.9849 15.3462Z" stroke="url(#paint0_linear_8_8836)" stroke-width="1.5" stroke-linecap="round" stroke-linejoin="round"/>
<path id="Stroke 3" fill-rule="evenodd" clip-rule="evenodd" d="M11.9849 12.0059C14.523 12.0059 16.5801 9.94779 16.5801 7.40969C16.5801 4.8716 14.523 2.81445 11.9849 2.81445C9.44679 2.81445 7.3887 4.8716 7.3887 7.40969C7.38013 9.93922 9.42394 11.9973 11.9525 12.0059H11.9849Z" stroke="url(#paint1_linear_8_8836)" stroke-width="1.42857" stroke-linecap="round" stroke-linejoin="round"/>
</g>
</g>
<defs>
<linearGradient id="paint0_linear_8_8836" x1="6.43785" y1="16.4545" x2="10.3186" y2="24.0107" gradientUnits="userSpaceOnUse">
<stop stop-color="#0F123F"/>
<stop offset="1" stop-color="#3A408F"/>
</linearGradient>
<linearGradient id="paint1_linear_8_8836" x1="8.42921" y1="4.54868" x2="15.713" y2="10.3584" gradientUnits="userSpaceOnUse">
<stop stop-color="#0F123F"/>
<stop offset="1" stop-color="#3A408F"/>
</linearGradient>
</defs>
</svg>
