<svg width="44" height="40" viewBox="0 0 44 40" fill="none" xmlns="http://www.w3.org/2000/svg">
<g clip-path="url(#clip0_6_20182)">
<path d="M42.0325 8.12775C40.5725 8.12775 38.5325 8.12775 36.2425 8.13609C35.6145 7.21104 34.9005 6.34747 34.11 5.55692C31.4237 2.85445 27.9256 1.10717 24.1515 0.582784C20.3773 0.0583935 16.5353 0.785809 13.2141 2.65359C10.8239 4.00279 8.77939 5.88838 7.24163 8.16192H1.02246L2.72746 9.82859H13.4166C14.8903 9.82846 16.3313 10.2624 17.5597 11.0764C18.7882 11.8903 19.7497 13.0481 20.3241 14.4051C20.8985 15.7622 21.0604 17.2584 20.7895 18.707C20.5187 20.1555 19.8272 21.4921 18.8012 22.55C17.7753 23.6079 16.4605 24.34 15.0209 24.6551C13.5814 24.9702 12.0809 24.8543 10.7069 24.3217C9.33284 23.7892 8.14614 22.8636 7.29496 21.6607C6.44377 20.4577 5.96582 19.0307 5.92079 17.5578C5.92079 17.4819 5.91663 17.4053 5.91663 17.3286H4.24996C4.24996 17.4119 4.24996 17.5003 4.25413 17.5861C4.25413 17.6961 4.24996 17.8061 4.24996 17.9194V22.0861C4.24996 26.7274 6.0937 31.1786 9.37559 34.4605C12.6575 37.7423 17.1087 39.5861 21.75 39.5861C26.3912 39.5861 30.8424 37.7423 34.1243 34.4605C37.4062 31.1786 39.25 26.7274 39.25 22.0861V17.9194C39.25 17.8111 39.25 17.7036 39.25 17.5961C39.25 17.5086 39.25 17.4203 39.25 17.3311H37.5833C37.5833 17.4078 37.5833 17.4844 37.5833 17.5603V17.5653C37.5833 17.6336 37.5766 17.7003 37.5725 17.7678C37.5683 17.8353 37.5675 17.8886 37.5625 17.9478C37.5575 18.0069 37.5491 18.0728 37.5433 18.1353C37.5375 18.1978 37.5316 18.2603 37.5233 18.3219C37.515 18.3836 37.505 18.4386 37.4966 18.4969C37.4883 18.5553 37.4775 18.6261 37.4666 18.6894C37.4558 18.7528 37.4441 18.7986 37.4325 18.8561C37.4208 18.9136 37.4075 18.9886 37.3925 19.0536C37.3808 19.1044 37.3658 19.1544 37.3533 19.2053C37.3366 19.2728 37.32 19.3411 37.3016 19.4078C37.2883 19.4544 37.2725 19.5003 37.2583 19.5469C37.2375 19.6161 37.2166 19.6861 37.1941 19.7553C37.1791 19.7986 37.1625 19.8386 37.1466 19.8844C37.1216 19.9544 37.0975 20.0253 37.0708 20.0944C37.055 20.1344 37.0366 20.1778 37.02 20.2144C36.9916 20.2853 36.9633 20.3561 36.9316 20.4253C36.915 20.4628 36.8966 20.4986 36.8791 20.5353C36.8466 20.6069 36.8133 20.6778 36.7783 20.7478C36.76 20.7828 36.7408 20.8169 36.7225 20.8511C36.6858 20.9219 36.6491 20.9928 36.61 21.0611C36.5908 21.0953 36.57 21.1278 36.55 21.1611C36.51 21.2294 36.4666 21.2986 36.4275 21.3653C36.4075 21.3969 36.3858 21.4269 36.3658 21.4578C36.3216 21.5253 36.2775 21.5936 36.2308 21.6603C36.2108 21.6886 36.1883 21.7161 36.1683 21.7436C36.12 21.8103 36.0716 21.8769 36.0208 21.9419C35.9991 21.9703 35.9766 21.9969 35.9541 22.0253C35.9033 22.0894 35.8516 22.1544 35.7983 22.2169C35.775 22.2444 35.75 22.2703 35.7266 22.3003C35.6725 22.3619 35.6191 22.4228 35.56 22.4819C35.5341 22.5094 35.5066 22.5361 35.4766 22.5653C35.4208 22.6219 35.3658 22.6794 35.31 22.7319C35.2825 22.7586 35.2533 22.7836 35.2266 22.8103C35.1691 22.8644 35.1116 22.9186 35.0525 22.9711C35.0208 22.9986 34.9883 23.0244 34.9566 23.0544C34.8991 23.1036 34.8416 23.1536 34.7825 23.2003C34.7483 23.2286 34.7116 23.2544 34.6766 23.2836C34.6191 23.3278 34.5616 23.3728 34.5025 23.4161C34.4641 23.4436 34.4241 23.4694 34.385 23.4994C34.3275 23.5394 34.2708 23.5828 34.2116 23.6186C34.1683 23.6478 34.1225 23.6744 34.0783 23.7019C34.0341 23.7294 33.9683 23.7728 33.9116 23.8061C33.855 23.8394 33.815 23.8594 33.7666 23.8894C33.7183 23.9194 33.6575 23.9519 33.6 23.9811C33.5425 24.0103 33.4875 24.0369 33.4333 24.0644C33.3791 24.0919 33.3341 24.1153 33.2833 24.1386C33.2325 24.1619 33.1558 24.1953 33.0916 24.2219C33.0458 24.2419 33.0016 24.2628 32.9558 24.2811C32.885 24.3103 32.8125 24.3369 32.7408 24.3644C32.7 24.3794 32.6575 24.3961 32.6208 24.4103C32.5333 24.4419 32.4441 24.4694 32.3558 24.4978C32.3291 24.5053 32.3041 24.5153 32.2775 24.5228C32.1758 24.5536 32.0725 24.5811 31.9691 24.6061L31.9275 24.6178C31.8108 24.6469 31.6933 24.6728 31.5741 24.7011H31.57C31.0797 24.7918 30.5818 24.8345 30.0833 24.8286C28.0942 24.828 26.1867 24.0373 24.7806 22.6304C23.3745 21.2235 22.5848 19.3156 22.5854 17.3265C22.5859 15.3374 23.3766 13.4299 24.7835 12.0238C26.1905 10.6177 28.0983 9.82803 30.0875 9.82859C30.1141 9.82859 32.7766 9.81442 35.7983 9.80442H35.8033H36.83C38.4491 9.79942 39.9266 9.79692 41.1325 9.79692L42.0316 8.96359L42.9291 8.13025C42.6575 8.12859 42.3583 8.12859 42.0325 8.12775ZM25.5891 25.3194C27.3133 26.2883 29.3045 26.6738 31.2657 26.4185C33.2269 26.1632 35.053 25.2808 36.4716 23.9028C36.5708 23.8069 36.6666 23.7086 36.7608 23.6086L36.775 23.5936C36.8658 23.4969 36.9533 23.3986 37.0391 23.2994L37.0625 23.2719C37.1458 23.1744 37.2291 23.0761 37.305 22.9761L37.3333 22.9394C37.41 22.8411 37.4844 22.7411 37.5566 22.6394L37.5741 22.6153C37.2933 31.1003 30.3025 37.9169 21.75 37.9169C13.1975 37.9169 6.20663 31.1003 5.92579 22.6153L5.94329 22.6394C6.01607 22.7405 6.09052 22.8403 6.16663 22.9386L6.19496 22.9753C6.27329 23.0753 6.35329 23.1744 6.43663 23.2711L6.45996 23.2986C6.54329 23.3978 6.63329 23.4961 6.72413 23.5928L6.73829 23.6078C6.83246 23.7069 6.92829 23.8053 7.02746 23.9019C8.39828 25.2337 10.1509 26.104 12.0405 26.3911C13.93 26.6783 15.862 26.368 17.5666 25.5036L21.3716 29.2236L25.5891 25.3194ZM22.6666 22.7136C22.69 22.7461 22.7133 22.7786 22.7375 22.8103C22.7758 22.8619 22.8158 22.9128 22.855 22.9636L22.9208 23.0469C22.9725 23.1111 23.025 23.1744 23.0775 23.2369L23.1125 23.2786C23.1775 23.3544 23.2433 23.4294 23.3108 23.5028C23.3316 23.5261 23.3533 23.5478 23.3741 23.5703C23.4216 23.6211 23.4691 23.6719 23.5183 23.7228L23.6016 23.8061C23.6458 23.8503 23.69 23.8944 23.7358 23.9378C23.765 23.9661 23.795 23.9944 23.8258 24.0211C23.87 24.0628 23.9141 24.1044 23.9591 24.1436L24.0533 24.2269C24.0991 24.2669 24.145 24.3103 24.1916 24.3444L21.4083 26.9211L19.0191 24.5878C19.735 24.0347 20.3659 23.3797 20.8916 22.6436C21.0583 22.4069 21.2155 22.1625 21.3633 21.9103C21.4266 21.8003 21.4866 21.6886 21.5458 21.5769L21.5933 21.4844C21.6408 21.3911 21.6866 21.2969 21.7308 21.2028C21.7383 21.1861 21.7466 21.1703 21.7541 21.1536C21.7546 21.1558 21.7546 21.1581 21.7541 21.1603C21.7958 21.2511 21.8375 21.3411 21.8841 21.4311C21.8941 21.4519 21.9058 21.4719 21.9158 21.4928C21.9508 21.5611 21.9858 21.6286 22.0225 21.6953C22.0391 21.7278 22.0575 21.7586 22.075 21.7903C22.1058 21.8461 22.1375 21.9011 22.1691 21.9569C22.1891 21.9919 22.21 22.0261 22.2308 22.0603L22.325 22.2136L22.3916 22.3178C22.4241 22.3678 22.4566 22.4169 22.49 22.4661L22.56 22.5686L22.6666 22.7136ZM33.1883 8.14775H33.1266L30.0833 8.16192H30.0766C29.9766 8.16192 29.8775 8.16192 29.7783 8.16775H29.695C29.6066 8.16775 29.5183 8.17609 29.43 8.18192H29.3891C29.29 8.18942 29.1916 8.19942 29.0933 8.20942L29.01 8.21859C28.9266 8.22859 28.8433 8.23942 28.7641 8.25109L28.7066 8.25942C28.61 8.27359 28.5141 8.29025 28.4183 8.30775L28.345 8.32192C28.2658 8.33692 28.1875 8.35275 28.11 8.37025L28.0441 8.38442C27.95 8.40609 27.8558 8.42859 27.7625 8.45359L27.6983 8.47109C27.6216 8.49109 27.545 8.51275 27.4691 8.53609L27.3991 8.55692C27.3075 8.58442 27.2158 8.61442 27.125 8.64525L27.075 8.66275C26.9975 8.68942 26.9208 8.71775 26.845 8.74609L26.7741 8.77275C26.685 8.80775 26.5958 8.84275 26.5075 8.88025L26.4783 8.89359C26.395 8.92775 26.3191 8.96359 26.24 8.99942L26.1708 9.03192C26.0875 9.07275 25.9983 9.11525 25.9133 9.15859C25.83 9.20275 25.7466 9.24775 25.6591 9.29442L25.5941 9.33109C25.5183 9.37359 25.4441 9.41442 25.37 9.46109L25.3425 9.47775C25.2591 9.52692 25.18 9.57859 25.1 9.63025L25.0408 9.66942C24.9725 9.71442 24.905 9.76025 24.8383 9.80692L24.7975 9.83525C24.72 9.89025 24.6433 9.94609 24.5683 10.0019L24.515 10.0428C24.4516 10.0911 24.3891 10.1403 24.3275 10.1903L24.2808 10.2278C24.2075 10.2878 24.135 10.3494 24.0633 10.4119L24.02 10.4503C23.96 10.5028 23.9008 10.5569 23.8425 10.6111L23.7933 10.6569C23.7241 10.7219 23.6566 10.7878 23.5891 10.8553L23.5575 10.8878C23.5 10.9469 23.4425 11.0061 23.3866 11.0661L23.3383 11.1178C23.2733 11.1886 23.21 11.2594 23.1475 11.3311L23.1308 11.3511C23.0733 11.4178 23.0175 11.4853 22.9641 11.5536C22.9483 11.5719 22.9333 11.5911 22.9183 11.6103C22.8591 11.6844 22.8 11.7594 22.7433 11.8353C22.6858 11.9119 22.63 11.9903 22.5766 12.0686L22.535 12.1294C22.4866 12.1994 22.4383 12.2711 22.3916 12.3428C22.3858 12.3519 22.3791 12.3611 22.3733 12.3711C22.3216 12.4544 22.2716 12.5319 22.2225 12.6136L22.1858 12.6761C22.145 12.7461 22.1025 12.8161 22.065 12.8869L22.04 12.9328C21.9941 13.0161 21.95 13.0994 21.9066 13.1828C21.8966 13.2036 21.8866 13.2244 21.8758 13.2453C21.8408 13.3161 21.8066 13.3869 21.7733 13.4586C21.7666 13.4719 21.76 13.4853 21.7541 13.4986C21.7483 13.4853 21.7416 13.4719 21.735 13.4586C21.7016 13.3869 21.6675 13.3161 21.6325 13.2453C21.6216 13.2244 21.6116 13.2036 21.6016 13.1828C21.5583 13.0994 21.5141 13.0161 21.4683 12.9328L21.4433 12.8869C21.4041 12.8161 21.36 12.7461 21.3225 12.6761L21.2858 12.6136C21.2366 12.5303 21.1866 12.4469 21.135 12.3711C21.1291 12.3611 21.1225 12.3519 21.1166 12.3428C21.07 12.2711 21.0216 12.1994 20.9733 12.1294L20.9316 12.0686C20.8766 11.9903 20.8208 11.9119 20.765 11.8353C20.7083 11.7594 20.6491 11.6844 20.59 11.6103C20.575 11.5911 20.56 11.5719 20.5441 11.5536C20.4891 11.4853 20.4333 11.4178 20.3775 11.3511L20.3608 11.3311C20.2983 11.2594 20.235 11.1886 20.17 11.1178L20.1216 11.0661C20.0658 11.0061 20.0083 10.9469 19.9508 10.8878L19.9191 10.8553C19.8516 10.7878 19.7841 10.7219 19.715 10.6569L19.6658 10.6111C19.6075 10.5569 19.5483 10.5028 19.4883 10.4503L19.445 10.4119C19.3733 10.3494 19.3008 10.2878 19.2275 10.2278L19.1808 10.1903C19.1191 10.1403 19.0566 10.0911 18.9933 10.0428L18.94 10.0019C18.865 9.94442 18.7883 9.88859 18.7108 9.83525L18.67 9.80692C18.6033 9.76025 18.5358 9.71442 18.4675 9.66942L18.4083 9.63025C18.325 9.57859 18.2475 9.52692 18.1658 9.47775L18.1383 9.46109C18.0641 9.41692 17.99 9.37359 17.9141 9.33109L17.8491 9.29442C17.7658 9.24775 17.6825 9.20275 17.595 9.15859C17.5116 9.11525 17.4233 9.07525 17.3375 9.03192L17.2683 8.99942C17.1891 8.96359 17.11 8.92775 17.03 8.89359C17.02 8.89359 17.0108 8.88442 17.0008 8.88109C16.9125 8.84359 16.8233 8.80775 16.7341 8.77275L16.6633 8.74609C16.5875 8.71692 16.5108 8.68859 16.4333 8.66275L16.3833 8.64525C16.2925 8.61442 16.2008 8.58442 16.1091 8.55692L16.0391 8.53609C15.9633 8.51275 15.8866 8.49109 15.81 8.47109L15.7458 8.45359C15.6525 8.42859 15.5583 8.40609 15.4641 8.38442L15.3983 8.37025C15.3208 8.35275 15.2425 8.33692 15.1633 8.32192L15.09 8.30775C14.9941 8.29025 14.8983 8.27359 14.8016 8.25942L14.7441 8.25109C14.6608 8.23942 14.5775 8.22859 14.4983 8.21859L14.415 8.20942C14.3166 8.19942 14.2183 8.18942 14.1191 8.18192H14.0783C13.99 8.17609 13.9016 8.17109 13.8133 8.16775H13.73C13.6308 8.16775 13.5316 8.16192 13.4316 8.16192H9.29996C10.6767 6.39563 12.4137 4.94265 14.3954 3.89957C16.3772 2.8565 18.5582 2.24723 20.7936 2.11228C23.029 1.97732 25.2676 2.31977 27.3604 3.11686C29.4532 3.91395 31.3524 5.14742 32.9316 6.73525C33.3755 7.17984 33.7929 7.65009 34.1816 8.14359L33.1883 8.14775Z" fill="url(#paint0_linear_6_20182)" stroke="url(#paint1_linear_6_20182)" stroke-width="0.833333" stroke-miterlimit="10"/>
<path d="M12.0853 19.6816C13.2359 19.6816 14.1686 18.7488 14.1686 17.5982C14.1686 16.4476 13.2359 15.5149 12.0853 15.5149C10.9347 15.5149 10.002 16.4476 10.002 17.5982C10.002 18.7488 10.9347 19.6816 12.0853 19.6816Z" fill="url(#paint2_linear_6_20182)"/>
<path d="M31.7669 19.6816C32.9175 19.6816 33.8503 18.7488 33.8503 17.5982C33.8503 16.4476 32.9175 15.5149 31.7669 15.5149C30.6163 15.5149 29.6836 16.4476 29.6836 17.5982C29.6836 18.7488 30.6163 19.6816 31.7669 19.6816Z" fill="url(#paint3_linear_6_20182)"/>
</g>
<defs>
<linearGradient id="paint0_linear_6_20182" x1="5.76661" y1="7.80739" x2="37.2071" y2="34.6376" gradientUnits="userSpaceOnUse">
<stop stop-color="#0F123F"/>
<stop offset="1" stop-color="#3A408F"/>
</linearGradient>
<linearGradient id="paint1_linear_6_20182" x1="5.76661" y1="7.80739" x2="37.2071" y2="34.6376" gradientUnits="userSpaceOnUse">
<stop stop-color="#0F123F"/>
<stop offset="1" stop-color="#3A408F"/>
</linearGradient>
<linearGradient id="paint2_linear_6_20182" x1="10.4737" y1="16.3011" x2="13.7755" y2="18.9347" gradientUnits="userSpaceOnUse">
<stop stop-color="#0F123F"/>
<stop offset="1" stop-color="#3A408F"/>
</linearGradient>
<linearGradient id="paint3_linear_6_20182" x1="30.1553" y1="16.3011" x2="33.4572" y2="18.9347" gradientUnits="userSpaceOnUse">
<stop stop-color="#0F123F"/>
<stop offset="1" stop-color="#3A408F"/>
</linearGradient>
<clipPath id="clip0_6_20182">
<rect width="43.9858" height="40" fill="white"/>
</clipPath>
</defs>
</svg>
