<svg width="44" height="32" viewBox="0 0 44 32" fill="none" xmlns="http://www.w3.org/2000/svg">
<g clip-path="url(#clip0_6_3713)">
<path d="M27.0161 0.418945C26.955 0.437379 26.8938 0.457489 26.8335 0.478437L26.7832 0.496033C26.7053 0.522847 26.6282 0.551336 26.5519 0.579825L26.4807 0.606639C26.3911 0.641831 26.3014 0.677023 26.2126 0.714729L26.1832 0.728136C26.0995 0.762491 26.0232 0.79852 25.9436 0.834551L25.8741 0.867231C25.7903 0.908289 25.7006 0.951021 25.6151 0.994593C25.5313 1.039 25.4476 1.08425 25.3596 1.13117L25.2942 1.16804C25.218 1.21078 25.1434 1.25183 25.0688 1.29876L25.0412 1.31552C24.9574 1.36495 24.8736 1.4169 24.7973 1.46885L24.7378 1.50824C24.6691 1.55348 24.6013 1.59957 24.5342 1.64649L24.4932 1.67498C24.4152 1.73028 24.3382 1.78642 24.2627 1.84256L24.2091 1.88362C24.1454 1.93222 24.0826 1.98166 24.0206 2.03193L23.9737 2.06964C23.8999 2.12997 23.827 2.19198 23.755 2.25482L23.7114 2.29336C23.6511 2.34615 23.5916 2.40061 23.5329 2.45508L23.4835 2.50117C23.4139 2.56652 23.3461 2.63272 23.2782 2.70059L23.2464 2.73327C23.1885 2.79276 23.1307 2.85225 23.0746 2.91258L23.026 2.96453C22.9606 3.03576 22.8969 3.10698 22.8341 3.17904L22.8173 3.19915C22.7595 3.26618 22.7034 3.33405 22.6498 3.40276C22.6338 3.4212 22.6188 3.44047 22.6037 3.45974C22.5442 3.53432 22.4847 3.60973 22.4277 3.68598C22.3699 3.76307 22.3138 3.84183 22.2601 3.9206L22.2182 3.98176C22.1696 4.05215 22.121 4.12421 22.0741 4.19627C22.0682 4.20549 22.0615 4.2147 22.0557 4.22476C22.0037 4.30855 21.9534 4.38648 21.904 4.46859L21.8671 4.53143C21.8261 4.60182 21.7834 4.6722 21.7456 4.74343L21.7205 4.78951C21.6744 4.87331 21.63 4.9571 21.5864 5.04089C21.5764 5.06184 21.5663 5.08278 21.5554 5.10373C21.5202 5.17495 21.4859 5.24618 21.4524 5.31824C21.4457 5.33165 21.439 5.34505 21.4331 5.35846C21.4272 5.34505 21.4205 5.33165 21.4138 5.31824C21.3803 5.24618 21.346 5.17495 21.3108 5.10373C21.2999 5.08278 21.2898 5.06184 21.2798 5.04089C21.2362 4.9571 21.1918 4.87331 21.1457 4.78951L21.1206 4.74343C21.0812 4.6722 21.0368 4.60182 20.9991 4.53143L20.9622 4.46859C20.9128 4.3848 20.8625 4.3052 20.8105 4.22476C20.8047 4.2147 20.798 4.20549 20.7921 4.19627C20.7452 4.12421 20.6966 4.05215 20.648 3.98176L20.6061 3.9206C20.5508 3.84183 20.4946 3.76307 20.4385 3.68598C20.3815 3.60973 20.322 3.53432 20.2625 3.45974C20.2474 3.44047 20.2324 3.4212 20.2164 3.40276C20.1611 3.33405 20.105 3.26618 20.0489 3.19915L20.0321 3.17904C19.9693 3.10698 19.9056 3.03576 19.8402 2.96453L19.7916 2.91258C19.7355 2.85225 19.6777 2.79276 19.6199 2.73327L19.588 2.70059C19.5201 2.63272 19.4523 2.56652 19.3827 2.50117L19.3333 2.45508C19.2746 2.40061 19.2151 2.34615 19.1548 2.29336L19.1112 2.25482C19.0392 2.19198 18.9663 2.12997 18.8925 2.06964L18.8456 2.03193C18.7836 1.98166 18.7208 1.93222 18.6571 1.88362L18.6035 1.84256C18.528 1.78475 18.451 1.72861 18.373 1.67498L18.332 1.64649C18.2649 1.59957 18.1971 1.55348 18.1284 1.50824L18.0689 1.46885C17.9851 1.4169 17.9072 1.36495 17.825 1.31552L17.7974 1.29876C17.7228 1.25435 17.6482 1.21078 17.572 1.16804L17.5066 1.13117C17.4228 1.08425 17.339 1.039 17.2511 0.994593C17.1673 0.951021 17.0785 0.910802 16.9921 0.867231L16.9226 0.834551C16.843 0.79852 16.7634 0.762491 16.683 0.728136C16.6729 0.723947 16.6637 0.71892 16.6536 0.715568C16.5648 0.677862 16.4752 0.641831 16.3855 0.606639L16.3143 0.579825C16.238 0.550498 16.1609 0.522009 16.083 0.496033L16.0327 0.478437C15.9724 0.457489 15.9112 0.437379 15.8501 0.418945H1.02734L2.2993 1.66241H13.0472C14.529 1.66228 15.9779 2.09866 17.2131 2.91706C18.4483 3.73546 19.4151 4.89961 19.9927 6.26414C20.5702 7.62867 20.733 9.13311 20.4607 10.5896C20.1884 12.0461 19.493 13.3901 18.4615 14.4538C17.4299 15.5175 16.1078 16.2537 14.6604 16.5705C13.2129 16.8873 11.7042 16.7707 10.3226 16.2352C8.941 15.6997 7.74777 14.7691 6.89191 13.5596C6.03604 12.35 5.55547 10.9151 5.51019 9.43408C5.51019 9.35783 5.506 9.28074 5.506 9.20365H3.83017C3.83017 9.28745 3.83017 9.37626 3.83436 9.46257C3.83436 9.57317 3.83017 9.68378 3.83017 9.79774V13.9873C3.83017 18.6541 5.68405 23.1298 8.98399 26.4297C12.2839 29.7297 16.7596 31.5835 21.4264 31.5835C26.0932 31.5835 30.5689 29.7297 33.8688 26.4297C37.1687 23.1298 39.0226 18.6541 39.0226 13.9873V9.79774C39.0226 9.68881 39.0226 9.58071 39.0226 9.47262C39.0226 9.38464 39.0226 9.29582 39.0226 9.20617H37.3468C37.3468 9.28325 37.3468 9.36034 37.3468 9.43659V9.44162C37.3468 9.51033 37.3401 9.57736 37.3359 9.64523C37.3317 9.71311 37.3309 9.76673 37.3258 9.82622C37.3208 9.88572 37.3124 9.95191 37.3066 10.0148C37.3007 10.0776 37.2948 10.1404 37.2865 10.2024C37.2781 10.2645 37.268 10.3198 37.2597 10.3784C37.2513 10.4371 37.2404 10.5083 37.2295 10.572C37.2186 10.6357 37.2069 10.6817 37.1951 10.7396C37.1834 10.7974 37.17 10.8728 37.1549 10.9381C37.1432 10.9893 37.1281 11.0395 37.1155 11.0906C37.0988 11.1585 37.082 11.2272 37.0636 11.2943C37.0502 11.3412 37.0343 11.3873 37.02 11.4342C36.9991 11.5037 36.9781 11.5741 36.9555 11.6437C36.9404 11.6872 36.9236 11.7275 36.9077 11.7735C36.8826 11.8439 36.8583 11.9151 36.8315 11.9847C36.8156 12.0249 36.7971 12.0685 36.7804 12.1054C36.7519 12.1766 36.7234 12.2478 36.6915 12.3173C36.6748 12.3551 36.6564 12.3911 36.6388 12.428C36.6061 12.5 36.5726 12.5712 36.5374 12.6416C36.5189 12.6768 36.4997 12.7112 36.4812 12.7455C36.4444 12.8167 36.4075 12.888 36.3681 12.9567C36.3488 12.991 36.3279 13.0237 36.3078 13.0572C36.2676 13.1259 36.224 13.1955 36.1846 13.2625C36.1645 13.2944 36.1427 13.3245 36.1226 13.3555C36.0782 13.4234 36.0338 13.4921 35.9869 13.5591C35.9668 13.5876 35.9441 13.6153 35.924 13.6429C35.8754 13.71 35.8268 13.777 35.7757 13.8424C35.7539 13.8708 35.7313 13.8977 35.7087 13.9261C35.6576 13.9907 35.6056 14.056 35.552 14.1189C35.5285 14.1465 35.5034 14.1725 35.4799 14.2027C35.4255 14.2647 35.3718 14.3258 35.3123 14.3853C35.2864 14.413 35.2587 14.4398 35.2285 14.4691C35.1724 14.5261 35.1171 14.5839 35.061 14.6367C35.0333 14.6635 35.004 14.6886 34.9772 14.7155C34.9194 14.7699 34.8615 14.8244 34.802 14.8772C34.7702 14.9048 34.7375 14.9308 34.7057 14.961C34.6479 15.0104 34.5901 15.0607 34.5306 15.1076C34.4962 15.1361 34.4593 15.1621 34.4241 15.1914C34.3663 15.2358 34.3085 15.2811 34.249 15.3246C34.2105 15.3523 34.1703 15.3783 34.1309 15.4084C34.0731 15.4486 34.0161 15.4922 33.9566 15.5282C33.913 15.5576 33.8669 15.5844 33.8225 15.612C33.7781 15.6397 33.7119 15.6833 33.6549 15.7168C33.598 15.7503 33.5577 15.7704 33.5091 15.8006C33.4605 15.8307 33.3994 15.8634 33.3416 15.8927C33.2837 15.9221 33.2284 15.9489 33.174 15.9765C33.1195 16.0042 33.0743 16.0276 33.0232 16.0511C32.972 16.0746 32.8949 16.1081 32.8304 16.1349C32.7843 16.155 32.7399 16.1759 32.6938 16.1944C32.6226 16.2237 32.5497 16.2505 32.4777 16.2782C32.4366 16.2933 32.3939 16.31 32.357 16.3243C32.269 16.3561 32.1794 16.3838 32.0906 16.4081C32.0637 16.4156 32.0386 16.4256 32.0118 16.4332C31.9096 16.4642 31.8057 16.4918 31.7018 16.517L31.6599 16.5287C31.5426 16.558 31.4244 16.584 31.3046 16.6083C30.8117 16.7055 30.3105 16.7544 29.8081 16.7541C27.808 16.7541 25.8899 15.9596 24.4756 14.5453C23.0613 13.1311 22.2668 11.2129 22.2668 9.21287C22.2668 7.21281 23.0613 5.29467 24.4756 3.88041C25.8899 2.46615 27.808 1.67163 29.8081 1.67163C29.8349 1.67163 32.512 1.65738 35.5503 1.64733H35.5553H36.5876C38.2157 1.6423 39.7013 1.63979 40.9138 1.63979L41.8179 0.801873L42.2193 0.430676L27.0161 0.418945ZM25.2867 17.2384C27.0203 18.2126 29.0225 18.6003 30.9944 18.3436C32.9664 18.0869 34.8026 17.1995 36.229 15.814C36.3287 15.7176 36.4251 15.6187 36.5198 15.5182L36.534 15.5031C36.6254 15.4059 36.7133 15.307 36.7996 15.2073L36.8231 15.1797C36.9069 15.0816 36.9907 14.9828 37.0669 14.8822L37.0954 14.8453C37.1725 14.7465 37.2474 14.6459 37.32 14.5437L37.3376 14.5194C37.0535 23.051 30.0259 29.9052 21.4264 29.9052C12.8269 29.9052 5.79927 23.051 5.51522 14.5194L5.53282 14.5437C5.60599 14.6448 5.68085 14.7451 5.75738 14.8445L5.78587 14.8814C5.86463 14.9819 5.94507 15.0816 6.02886 15.1788L6.05232 15.2065C6.13611 15.3062 6.22661 15.4051 6.31794 15.5023L6.33219 15.5173C6.42687 15.6171 6.52323 15.7159 6.62294 15.8131C8.0013 17.1522 9.76357 18.0273 11.6635 18.316C13.5634 18.6048 15.5061 18.2928 17.2201 17.4236L21.0493 21.1641L25.2867 17.2384ZM22.3448 14.6183C22.3682 14.6509 22.3917 14.6836 22.416 14.7155C22.4545 14.7674 22.4947 14.8185 22.5341 14.8696L22.6003 14.9534C22.6523 15.018 22.7051 15.0816 22.7578 15.1445L22.793 15.1864C22.8584 15.2626 22.9246 15.338 22.9925 15.4118C23.0134 15.4352 23.0352 15.457 23.0561 15.4796C23.1039 15.5308 23.1517 15.5819 23.2011 15.633L23.2849 15.7168C23.3293 15.7612 23.3737 15.8056 23.4198 15.8492C23.4491 15.8777 23.4793 15.9061 23.5103 15.933C23.5547 15.9748 23.5991 16.0167 23.6444 16.0561L23.739 16.1399C23.7851 16.1801 23.8312 16.2195 23.8781 16.2581L21.0795 18.8489L18.6772 16.5027C19.397 15.9467 20.0314 15.2881 20.56 14.5479C20.7276 14.3099 20.8857 14.0641 21.0343 13.8105C21.0979 13.6999 21.1583 13.5876 21.2178 13.4753L21.2655 13.3823C21.3133 13.2885 21.3594 13.1938 21.4038 13.0991C21.4113 13.0824 21.4197 13.0664 21.4272 13.0497C21.4277 13.0519 21.4277 13.0542 21.4272 13.0564C21.4691 13.1477 21.511 13.2382 21.558 13.3287C21.568 13.3497 21.5797 13.3698 21.5898 13.3907C21.625 13.4594 21.6602 13.5273 21.697 13.5943C21.7138 13.627 21.7322 13.658 21.7498 13.6899C21.7808 13.746 21.8127 13.8013 21.8445 13.8574C21.8646 13.8926 21.8856 13.927 21.9065 13.9613L22.0012 14.1155L22.0682 14.2203C22.1009 14.2705 22.1336 14.32 22.1671 14.3694L22.2375 14.4725L22.3448 14.6183Z" fill="url(#paint0_linear_6_3713)" stroke="url(#paint1_linear_6_3713)" stroke-width="1.05333" stroke-miterlimit="10"/>
<path d="M11.711 11.5697C12.8679 11.5697 13.8058 10.6318 13.8058 9.47492C13.8058 8.318 12.8679 7.38013 11.711 7.38013C10.5541 7.38013 9.61621 8.318 9.61621 9.47492C9.61621 10.6318 10.5541 11.5697 11.711 11.5697Z" stroke="url(#paint2_linear_6_3713)" stroke-width="2.10666" stroke-miterlimit="10"/>
<path d="M31.4991 11.5697C32.656 11.5697 33.5939 10.6318 33.5939 9.47492C33.5939 8.318 32.656 7.38013 31.4991 7.38013C30.3422 7.38013 29.4043 8.318 29.4043 9.47492C29.4043 10.6318 30.3422 11.5697 31.4991 11.5697Z" stroke="url(#paint3_linear_6_3713)" stroke-width="2.10666" stroke-miterlimit="10"/>
</g>
<defs>
<linearGradient id="paint0_linear_6_3713" x1="5.69058" y1="6.29906" x2="30.9858" y2="32.9667" gradientUnits="userSpaceOnUse">
<stop stop-color="#0F123F"/>
<stop offset="1" stop-color="#3A408F"/>
</linearGradient>
<linearGradient id="paint1_linear_6_3713" x1="5.69058" y1="6.29906" x2="30.9858" y2="32.9667" gradientUnits="userSpaceOnUse">
<stop stop-color="#0F123F"/>
<stop offset="1" stop-color="#3A408F"/>
</linearGradient>
<linearGradient id="paint2_linear_6_3713" x1="10.0905" y1="8.17061" x2="13.4105" y2="10.8187" gradientUnits="userSpaceOnUse">
<stop stop-color="#0F123F"/>
<stop offset="1" stop-color="#3A408F"/>
</linearGradient>
<linearGradient id="paint3_linear_6_3713" x1="29.8786" y1="8.17061" x2="33.1986" y2="10.8187" gradientUnits="userSpaceOnUse">
<stop stop-color="#0F123F"/>
<stop offset="1" stop-color="#3A408F"/>
</linearGradient>
<clipPath id="clip0_6_3713">
<rect width="43.2918" height="32" fill="white"/>
</clipPath>
</defs>
</svg>
