<svg width="20" height="22" viewBox="0 0 20 22" fill="none" xmlns="http://www.w3.org/2000/svg">
<path d="M18 15.4548H20V17.4218H0V15.4548H2V8.57048C2 6.4838 2.84285 4.48258 4.34315 3.00707C5.84344 1.53157 7.87827 0.702637 10 0.702637C12.1217 0.702637 14.1566 1.53157 15.6569 3.00707C17.1571 4.48258 18 6.4838 18 8.57048V15.4548ZM16 15.4548V8.57048C16 7.00547 15.3679 5.50455 14.2426 4.39792C13.1174 3.2913 11.5913 2.6696 10 2.6696C8.4087 2.6696 6.88258 3.2913 5.75736 4.39792C4.63214 5.50455 4 7.00547 4 8.57048V15.4548H16ZM7 19.3888H13V21.3557H7V19.3888Z" fill="#1F4173" fill-opacity="0.5"/>
</svg>
